<svg width="53" height="53" viewBox="0 0 53 53" fill="none" xmlns="http://www.w3.org/2000/svg">
<path d="M26.3747 51.748C12.36 51.748 1 40.388 1 26.3747C1 12.36 12.36 0.999999 26.3747 0.999999C40.388 0.999999 51.748 12.36 51.748 26.3747C51.748 40.388 40.388 51.748 26.3747 51.748Z" stroke="#171717" stroke-width="2" stroke-miterlimit="10"/>
<path d="M22.508 41.712H28.6839V26.244H32.9946L33.4533 21.0654H28.6839C28.6839 21.0654 28.6839 19.132 28.6839 18.116C28.6839 16.8947 28.9293 16.412 30.1106 16.412C31.0599 16.412 33.4533 16.412 33.4533 16.412V11.0374C33.4533 11.0374 29.9293 11.0374 29.176 11.0374C24.58 11.0374 22.508 13.0614 22.508 16.936C22.508 20.3107 22.508 21.0654 22.508 21.0654H19.2946V26.3094H22.508V41.712Z" fill="#171717"/>
</svg>
