<svg width="53" height="53" viewBox="0 0 53 53" fill="none" xmlns="http://www.w3.org/2000/svg">
<path d="M26.3734 51.748C12.36 51.748 1 40.388 1 26.3747C1 12.36 12.36 0.999999 26.3734 0.999999C40.3867 0.999999 51.748 12.36 51.748 26.3747C51.748 40.388 40.3867 51.748 26.3734 51.748Z" stroke="#171717" stroke-width="2" stroke-miterlimit="10"/>
<path d="M26.3733 12.4614C22.5947 12.4614 22.1213 12.4773 20.6373 12.5453C19.156 12.6133 18.1453 12.848 17.26 13.192C16.3453 13.548 15.5693 14.024 14.796 14.7974C14.0227 15.5707 13.5466 16.3467 13.192 17.2614C12.848 18.1467 12.612 19.1574 12.5454 20.6387C12.4774 22.1227 12.4613 22.596 12.4613 26.3747C12.4613 30.1534 12.4774 30.6267 12.5454 32.1107C12.612 33.592 12.848 34.6027 13.192 35.488C13.5466 36.4027 14.0227 37.1787 14.796 37.952C15.5693 38.7253 16.3453 39.2014 17.26 39.5574C18.1453 39.9 19.156 40.136 20.6373 40.204C22.1213 40.2707 22.5947 40.2867 26.3733 40.2867C30.152 40.2867 30.6253 40.2707 32.1093 40.204C33.5907 40.136 34.6013 39.9 35.4866 39.5574C36.4013 39.2014 37.1773 38.7253 37.9506 37.952C38.724 37.1787 39.2 36.4027 39.556 35.488C39.9 34.6027 40.1346 33.592 40.2026 32.1107C40.2706 30.6267 40.2866 30.1534 40.2866 26.3747C40.2866 22.596 40.2706 22.1227 40.2026 20.6387C40.1346 19.1574 39.9 18.1467 39.556 17.2614C39.2 16.3467 38.724 15.5707 37.9506 14.7974C37.1773 14.024 36.4013 13.548 35.4866 13.192C34.6013 12.848 33.5907 12.6133 32.1093 12.5453C30.6253 12.4773 30.152 12.4614 26.3733 12.4614ZM26.3733 14.968C30.0893 14.968 30.528 14.9827 31.996 15.0493C33.352 15.112 34.0894 15.3387 34.5787 15.5294C35.228 15.7814 35.692 16.0827 36.1787 16.5694C36.6654 17.056 36.9667 17.52 37.2187 18.1694C37.4093 18.66 37.636 19.396 37.6987 20.7533C37.7653 22.22 37.78 22.66 37.78 26.3747C37.78 30.0894 37.7653 30.5294 37.6987 31.996C37.636 33.3534 37.4093 34.0893 37.2187 34.58C36.9667 35.2293 36.6654 35.692 36.1787 36.18C35.692 36.6667 35.228 36.968 34.5787 37.22C34.0894 37.4107 33.352 37.6374 31.996 37.6987C30.528 37.7654 30.0893 37.78 26.3733 37.78C22.6587 37.78 22.2187 37.7654 20.752 37.6987C19.396 37.6374 18.6587 37.4107 18.168 37.22C17.5187 36.968 17.056 36.6667 16.5693 36.18C16.0813 35.692 15.78 35.2293 15.528 34.58C15.3373 34.0893 15.1107 33.3534 15.0493 31.996C14.9827 30.5294 14.968 30.0894 14.968 26.3747C14.968 22.66 14.9827 22.22 15.0493 20.7533C15.1107 19.396 15.3373 18.66 15.528 18.1694C15.78 17.52 16.0813 17.056 16.5693 16.5694C17.056 16.0827 17.5187 15.7814 18.168 15.5294C18.6587 15.3387 19.396 15.112 20.752 15.0493C22.2187 14.9827 22.6587 14.968 26.3733 14.968Z" fill="#171717"/>
<path d="M26.3733 31.012C23.812 31.012 21.7359 28.936 21.7359 26.3747C21.7359 23.8133 23.812 21.7373 26.3733 21.7373C28.9347 21.7373 31.0106 23.8133 31.0106 26.3747C31.0106 28.936 28.9347 31.012 26.3733 31.012ZM26.3733 19.2307C22.428 19.2307 19.2293 22.4293 19.2293 26.3747C19.2293 30.32 22.428 33.5186 26.3733 33.5186C30.32 33.5186 33.5173 30.32 33.5173 26.3747C33.5173 22.4293 30.32 19.2307 26.3733 19.2307Z" fill="#171717"/>
<path d="M35.4693 18.948C35.4693 19.8693 34.7227 20.6173 33.8 20.6173C32.8787 20.6173 32.1307 19.8693 32.1307 18.948C32.1307 18.0253 32.8787 17.2787 33.8 17.2787C34.7227 17.2787 35.4693 18.0253 35.4693 18.948Z" fill="#171717"/>
</svg>
