<svg width="490" height="133" viewBox="0 0 490 133" fill="none" xmlns="http://www.w3.org/2000/svg">
<path d="M28.3385 75.2006C29.3881 75.035 30.4376 74.8693 31.4872 74.7037C32.5368 74.4553 33.6738 74.1654 34.8983 73.8342C33.4114 72.5092 31.4435 71.6811 28.9945 71.3499C28.7321 72.6749 28.5134 73.9584 28.3385 75.2006ZM81.9979 36.818C81.6481 40.3788 80.6422 44.1053 78.9804 47.9974C77.406 51.8895 75.1757 55.6573 72.2894 59.301C69.403 62.9446 65.9045 66.3399 61.7936 69.4867C57.6828 72.6335 53.0035 75.2006 47.7556 77.188C48.5428 78.5958 49.2862 80.0864 49.9859 81.6598C50.6857 83.2332 51.2979 85.0136 51.8227 87.0011C52.6099 89.651 53.2659 92.3837 53.7906 95.1993C54.4029 98.0148 54.8839 100.748 55.2338 103.397C55.6711 106.047 56.021 108.49 56.2834 110.726C56.6332 113.045 56.8956 114.95 57.0706 116.44C57.4204 118.924 58.2513 120.663 59.5633 121.657C60.9627 122.734 62.4934 123.313 64.1552 123.396C65.9045 123.562 67.61 123.396 69.2718 122.899C71.0211 122.402 72.3768 121.864 73.339 121.285C73.2515 121.367 72.7704 122.071 71.8958 123.396C71.0211 124.804 69.8404 126.253 68.3535 127.744C66.8666 129.317 65.0736 130.642 62.9744 131.719C60.9627 132.878 58.6886 133.251 56.1522 132.837C54.4029 132.588 52.8285 132.008 51.4291 131.098C50.1171 130.269 48.9364 128.986 47.8868 127.247C46.9247 125.591 46.1375 123.438 45.5252 120.788C44.913 118.138 44.5194 114.908 44.3445 111.099C44.1695 105.965 43.9509 101.079 43.6885 96.4414C43.5136 91.7212 42.5952 87.3737 40.9334 83.3988C40.671 82.7363 40.4086 82.1152 40.1462 81.5356C39.8838 80.8731 39.5777 80.2934 39.2278 79.7965C35.6418 80.6246 31.6184 81.1629 27.1577 81.4113C26.5455 84.5581 25.8895 87.7877 25.1898 91.1002C24.49 94.4126 23.7466 97.6422 22.9594 100.789C22.2597 103.936 21.4725 106.876 20.5979 109.608C19.8107 112.424 19.0235 114.825 18.2363 116.813C17.3617 118.883 16.2247 120.539 14.8252 121.781C13.5133 123.106 11.3704 123.769 8.39659 123.769C6.6473 123.769 5.11667 123.396 3.8047 122.651C2.49274 121.906 1.2245 120.87 0 119.546C0.349858 119.297 0.918377 118.883 1.70556 118.303C2.40527 117.806 3.27992 116.73 4.32949 115.074C5.2916 113.5 6.34117 111.223 7.47821 108.242C8.70271 105.261 9.92722 101.244 11.1517 96.193C11.589 94.1227 12.1576 91.7212 12.8573 88.9885C13.6445 86.1729 14.4754 83.109 15.35 79.7965C11.8514 77.9747 10.2333 75.5318 10.4957 72.4678C10.6707 70.5632 11.589 68.9484 13.2509 67.6234C14.9127 66.2985 16.9244 65.3876 19.2859 64.8907C20.423 60.5846 21.56 56.237 22.697 51.8481C23.9215 47.4591 25.0586 43.36 26.1081 39.5507C27.1577 35.6586 28.1198 32.1806 28.9945 29.1166C29.8691 25.9698 30.5688 23.4855 31.0936 21.6637C29.5193 22.6574 27.9449 23.7754 26.3705 25.0175C24.9711 26.0941 23.4405 27.3362 21.7786 28.744C20.2043 30.069 18.7174 31.4767 17.318 32.9673C16.6182 32.4704 16.0497 31.9322 15.6124 31.3525C15.1751 30.7728 14.8252 30.276 14.5628 29.8619C14.213 29.3651 13.9506 28.8268 13.7757 28.2471C13.1634 27.0878 12.8573 25.8456 12.8573 24.5207C12.8573 23.1129 13.9068 21.7051 16.006 20.2973C17.143 19.552 18.8486 18.4755 21.1227 17.0677C23.4842 15.66 26.3705 14.2936 29.7816 12.9686C33.1928 11.6437 37.1287 10.4843 41.5893 9.49059C46.1375 8.49686 51.1667 8 56.677 8C62.1872 8 66.6479 9.03513 70.059 11.1054C73.4701 13.1756 76.0941 15.7014 77.9308 18.6825C79.7676 21.6637 80.9484 24.8105 81.4731 28.1229C82.0854 31.4353 82.2603 34.3337 81.9979 36.818ZM42.3765 70.9772C45.4378 69.5695 48.4553 67.8305 51.4291 65.7602C54.4904 63.6899 57.2455 61.2056 59.6945 58.3073C62.1435 55.4089 64.1989 52.1379 65.8607 48.4942C67.5226 44.7678 68.5721 40.5859 69.0095 35.9485C69.3593 31.808 69.0532 28.3713 68.0911 25.6386C67.2164 22.823 65.8607 20.5872 64.024 18.931C62.2747 17.2748 60.263 16.1154 57.9889 15.4529C55.7149 14.7076 53.4408 14.335 51.1667 14.335C49.0676 14.335 46.9247 14.6248 44.7381 15.2045C42.6389 15.7842 40.5835 16.5295 38.5718 17.4404C38.8342 17.5232 39.1403 17.7302 39.4902 18.0615C39.6651 18.3099 39.8401 18.6411 40.015 19.0552C40.2774 19.3864 40.4523 19.7591 40.5398 20.1731C38.5281 28.2057 36.91 34.9134 35.6855 40.296C34.461 45.6787 33.4552 50.0676 32.668 53.4629C31.7059 57.4378 31.0062 60.626 30.5688 63.0275C30.4814 63.3587 30.3939 63.6899 30.3064 64.0212C30.3064 64.3524 30.2627 64.7251 30.1752 65.1391C32.0995 65.5532 34.1111 66.2157 36.2103 67.1266C38.3094 67.9547 40.3648 69.2382 42.3765 70.9772Z" fill="black"/>
<path d="M139.462 76.1943C136.838 79.838 133.864 83.3988 130.541 86.8768C127.217 90.272 123.675 93.336 119.914 96.0688C116.24 98.7187 112.436 100.872 108.5 102.528C104.651 104.184 100.89 105.012 97.2167 105.012C95.2925 105.012 93.1934 104.557 90.9193 103.646C88.7327 102.818 86.721 101.493 84.8843 99.671C83.0475 97.8492 81.5606 95.4891 80.4236 92.5907C79.374 89.6924 79.0679 86.1729 79.5052 82.0324C79.855 78.6372 80.9484 75.0764 82.7851 71.3499C84.7093 67.5406 87.0271 64.0626 89.7385 60.9158C92.5374 57.769 95.6424 55.1605 99.0535 53.0902C102.552 51.02 106.051 49.9848 109.549 49.9848C112.873 49.9848 115.278 50.7715 116.765 52.3449C118.252 53.9183 118.908 55.8644 118.733 58.1831C118.471 60.7502 117.683 63.1103 116.371 65.2633C115.147 67.4164 113.66 69.3624 111.911 71.1015C110.161 72.8405 108.281 74.4139 106.269 75.8217C104.345 77.2294 102.508 78.513 100.759 79.6723C98.8348 80.9145 96.9981 82.1152 95.2488 83.2746C93.4995 84.3511 91.9689 85.3448 90.6569 86.2557C90.7444 88.326 91.138 90.065 91.8377 91.4728C92.5374 92.8806 93.412 94.0399 94.4616 94.9508C95.5112 95.7789 96.692 96.4 98.0039 96.8141C99.4034 97.1453 100.803 97.3109 102.202 97.3109C105.176 97.3109 108.281 96.4414 111.517 94.7024C114.753 92.8806 117.902 90.7275 120.963 88.2432C124.112 85.6761 126.998 83.0261 129.622 80.2934C132.334 77.5607 134.564 75.2006 136.313 73.2131C136.926 72.5506 137.538 72.178 138.15 72.0952C138.85 71.9296 139.375 72.0124 139.724 72.3436C140.162 72.592 140.38 73.0889 140.38 73.8342C140.38 74.4967 140.074 75.2834 139.462 76.1943ZM105.876 57.0651C104.826 57.0651 103.558 57.562 102.071 58.5557C100.672 59.5494 99.2722 60.9986 97.8727 62.9032C96.4733 64.7251 95.1613 67.0024 93.9368 69.7351C92.7123 72.385 91.7939 75.449 91.1817 78.927C92.2313 78.1817 93.3683 77.4365 94.5928 76.6912C95.8173 75.8631 97.0418 74.9935 98.2663 74.0826C102.027 71.3499 104.651 68.9484 106.138 66.8781C107.625 64.8079 108.456 63.0275 108.631 61.5369C108.806 59.9635 108.631 58.8455 108.106 58.1831C107.581 57.4378 106.838 57.0651 105.876 57.0651Z" fill="black"/>
<path d="M171.168 105.137C169.157 105.137 167.407 104.764 165.921 104.019C164.521 103.356 163.384 102.445 162.509 101.286C161.635 100.126 161.066 98.8015 160.804 97.3109C160.541 95.7375 160.629 94.0813 161.066 92.3423C161.329 91.183 161.766 89.651 162.378 87.7463C162.99 85.7589 163.603 83.6472 164.215 81.4113C164.915 79.0927 165.527 76.8154 166.052 74.5795C166.664 72.2608 167.058 70.1905 167.233 68.3687C167.407 66.4641 167.32 64.9321 166.97 63.7728C166.62 62.5306 165.877 61.9095 164.74 61.9095C163.34 61.9095 161.897 62.365 160.41 63.2759C158.923 64.104 157.393 65.2633 155.818 66.7539C154.332 68.2445 152.801 69.9835 151.227 71.971C149.74 73.8756 148.253 75.8631 146.766 77.9333C145.979 80.7489 145.323 83.2332 144.798 85.3862C144.273 87.4565 143.792 89.3611 143.355 91.1002C143.005 92.7564 142.655 94.2469 142.305 95.5719C141.955 96.8141 141.649 98.0148 141.387 99.1742C141.124 100.002 140.337 100.83 139.025 101.658C137.713 102.404 136.314 103.025 134.827 103.522C133.34 104.019 132.072 104.267 131.022 104.267C129.885 104.267 129.404 103.894 129.579 103.149C129.667 102.652 129.973 101.534 130.497 99.7952C130.935 98.0562 131.503 96.0274 132.203 93.7087C132.815 91.3072 133.471 88.7815 134.171 86.1315C134.871 83.4816 135.527 80.9559 136.139 78.5544C136.576 76.6498 137.057 74.5381 137.582 72.2194C138.019 70.232 138.544 67.9133 139.156 65.2633C139.856 62.6134 140.643 59.715 141.518 56.5683C142.13 56.0714 142.742 55.6987 143.355 55.4503C144.054 55.1191 144.754 54.8706 145.454 54.705C146.154 54.4566 146.897 54.291 147.684 54.2082C148.384 54.2082 149.084 54.2496 149.783 54.3324C150.396 54.4152 151.008 54.5808 151.62 54.8292C152.32 54.9949 152.932 55.2847 153.457 55.6987C153.194 56.2784 152.888 57.1065 152.538 58.1831C152.189 59.1768 151.839 60.2533 151.489 61.4127C151.139 62.7376 150.702 64.104 150.177 65.5118C151.314 64.0212 152.582 62.5306 153.982 61.04C155.469 59.4666 157.043 58.0588 158.705 56.8167C160.454 55.5745 162.291 54.5808 164.215 53.8355C166.139 53.0074 168.107 52.5934 170.119 52.5934C171.781 52.5934 173.268 53.0488 174.58 53.9597C175.892 54.8706 176.897 56.1542 177.597 57.8104C178.384 59.3838 178.822 61.2884 178.909 63.5243C179.084 65.7602 178.778 68.2031 177.991 70.853L176.547 76.3185C176.11 78.0575 175.542 80.1278 174.842 82.5293C174.23 84.848 173.443 87.4151 172.48 90.2306C171.956 92.0525 171.737 93.6259 171.824 94.9508C171.999 96.2758 172.874 96.9383 174.448 96.9383C176.023 96.9383 177.991 96.0274 180.352 94.2055C182.801 92.3837 185.25 90.1892 187.699 87.6221C190.148 85.055 192.466 82.4465 194.653 79.7965C196.839 77.0638 198.501 74.8693 199.638 73.2131C200.425 72.1366 201.169 71.4327 201.868 71.1015C202.568 70.7702 203.093 70.7288 203.443 70.9772C203.88 71.2257 204.099 71.8054 204.099 72.7163C204.099 73.5444 203.749 74.6209 203.049 75.9459C202.437 77.1052 201.475 78.6372 200.163 80.5418C198.938 82.4465 197.451 84.4753 195.702 86.6284C193.953 88.7815 192.072 90.9759 190.061 93.2118C188.049 95.3649 185.95 97.3523 183.763 99.1742C181.577 100.913 179.39 102.321 177.203 103.397C175.104 104.557 173.093 105.137 171.168 105.137Z" fill="black"/>
<path d="M265.062 77.3122C263.838 78.9684 262.263 81.0387 260.339 83.523C258.415 85.9245 256.403 88.3674 254.304 90.8517C252.292 93.2532 250.281 95.4891 248.269 97.5594C246.345 99.5468 244.727 100.955 243.415 101.783C242.54 102.28 241.534 102.694 240.397 103.025C239.26 103.356 238.08 103.563 236.855 103.646C235.718 103.729 234.625 103.646 233.575 103.397C232.526 103.232 231.607 102.901 230.82 102.404C230.033 101.824 229.377 100.996 228.852 99.9195C228.415 99.0085 227.977 97.8078 227.54 96.3172C227.19 94.8266 227.059 92.9634 227.146 90.7275C225.047 94.0399 222.729 96.607 220.193 98.4289C217.657 100.168 215.251 101.451 212.977 102.28C210.353 103.19 207.729 103.729 205.105 103.894C203.881 103.894 202.569 103.48 201.17 102.652C199.77 101.907 198.589 100.706 197.627 99.0499C196.665 97.3109 196.053 95.1165 195.79 92.4665C195.528 89.7338 195.878 86.5042 196.84 82.7777C198.065 77.7263 199.989 73.1303 202.613 68.9898C205.324 64.8493 208.254 61.3298 211.403 58.4315C214.552 55.4503 217.657 53.2144 220.718 51.7238C223.779 50.2333 226.316 49.5708 228.327 49.7364C230.689 50.1505 232.613 50.8129 234.1 51.7238C235.324 52.552 236.112 53.7941 236.461 55.4503C236.899 57.0237 236.199 59.1354 234.362 61.7853C235.587 61.5369 236.593 61.3712 237.38 61.2884C238.254 61.2056 238.91 61.1642 239.348 61.1642C239.873 61.1642 240.222 61.2056 240.397 61.2884C240.485 61.4541 240.529 61.8267 240.529 62.4064C240.529 62.9032 240.397 63.8556 240.135 65.2633C239.873 66.6711 239.479 68.5757 238.954 70.9772C238.429 73.3787 237.73 76.4841 236.855 80.2934C236.68 81.0387 236.505 81.7426 236.33 82.4051C236.243 82.9847 236.112 83.6058 235.937 84.2683C235.849 84.848 235.718 85.5519 235.543 86.38C235.368 87.2081 235.149 88.2432 234.887 89.4854C234.8 90.2306 234.756 91.0587 234.756 91.9697C234.843 92.7978 235.018 93.5845 235.281 94.3298C235.543 95.0751 235.937 95.6961 236.461 96.193C237.074 96.607 237.905 96.8141 238.954 96.8141C239.829 96.8141 240.966 96.3172 242.365 95.3235C243.765 94.2469 245.252 92.922 246.826 91.3486C248.4 89.6924 250.018 87.912 251.68 86.0073C253.43 84.0199 255.048 82.1152 256.535 80.2934C258.021 78.4716 259.333 76.8568 260.47 75.449C261.695 74.0412 262.57 73.0061 263.094 72.3436C263.794 71.5983 264.494 71.1843 265.193 71.1015C265.893 70.9358 266.418 71.1015 266.768 71.5983C267.118 72.0952 267.161 72.8405 266.899 73.8342C266.724 74.8279 266.112 75.9873 265.062 77.3122ZM226.622 82.7777C227.059 81.1215 227.584 79.1755 228.196 76.9396C228.808 74.7037 229.333 72.5506 229.77 70.4804C230.208 68.4101 230.514 66.7125 230.689 65.3875C230.951 63.9798 230.907 63.3173 230.558 63.4001C230.12 63.4829 229.639 63.6071 229.114 63.7728C228.677 63.9384 228.109 64.0626 227.409 64.1454C226.709 64.2282 226.009 64.3524 225.31 64.518C226.009 63.1931 226.403 62.1165 226.49 61.2884C226.665 60.3775 226.709 59.6736 226.622 59.1768C226.534 58.5971 226.359 58.1416 226.097 57.8104C225.135 57.0651 223.429 57.6862 220.98 59.6736C218.619 61.5783 215.864 65.1391 212.715 70.3562C211.403 72.5092 210.353 74.8279 209.566 77.3122C208.779 79.7137 208.21 81.991 207.861 84.1441C207.598 86.2972 207.554 88.2018 207.729 89.858C207.904 91.4314 208.254 92.4665 208.779 92.9634C209.741 93.8743 210.834 94.3298 212.059 94.3298C213.283 94.247 214.508 93.9157 215.732 93.336C217.044 92.6735 218.313 91.8454 219.537 90.8517C220.849 89.858 221.986 88.8229 222.948 87.7463C223.998 86.6698 224.829 85.6761 225.441 84.7652C226.141 83.8543 226.534 83.1918 226.622 82.7777Z" fill="black"/>
<path d="M283.387 97.8078C286.099 97.8078 289.072 96.8141 292.309 94.8266C295.632 92.7564 298.825 90.3549 301.886 87.6221C305.035 84.8894 307.877 82.1152 310.414 79.2997C313.038 76.4013 315.006 74.0826 316.318 72.3436C317.105 71.2671 317.848 70.646 318.548 70.4804C319.248 70.232 319.772 70.3148 320.122 70.7288C320.472 71.1429 320.603 71.8054 320.516 72.7163C320.428 73.5444 320.035 74.4967 319.335 75.5732C318.723 76.5669 317.673 78.0161 316.186 79.9208C314.787 81.7426 313.081 83.7714 311.07 86.0073C309.145 88.1604 306.915 90.3963 304.379 92.715C301.93 94.9508 299.349 97.0211 296.638 98.9257C293.927 100.748 291.128 102.238 288.241 103.397C285.355 104.64 282.512 105.261 279.714 105.261C275.865 105.261 272.629 104.557 270.005 103.149C267.469 101.824 265.413 100.085 263.839 97.932C262.352 95.7789 261.302 93.4188 260.69 90.8517C260.078 88.2018 259.772 85.5933 259.772 83.0261C259.772 80.459 260.384 77.2708 261.608 73.4616C262.833 69.6523 264.626 66.0086 266.988 62.5306C269.437 58.9697 272.498 55.9472 276.171 53.4629C279.845 50.8957 284.174 49.6122 289.16 49.6122C291.959 49.6122 294.32 50.5231 296.244 52.3449C298.256 54.1668 299.218 56.6511 299.131 59.7979C299.131 61.2884 298.868 62.779 298.344 64.2696C297.819 65.6774 297.119 66.9609 296.244 68.1203C295.37 69.1968 294.32 70.0663 293.096 70.7288C291.959 71.3913 290.69 71.7225 289.291 71.7225C288.154 71.7225 287.279 71.3499 286.667 70.6046C286.142 69.7765 285.792 68.8656 285.618 67.8719C285.53 66.7953 285.53 65.7602 285.618 64.7665C285.792 63.7728 285.967 63.1103 286.142 62.779C286.58 62.1994 287.061 61.7853 287.585 61.5369C288.11 61.2884 288.723 60.9986 289.422 60.6674C289.947 60.4189 290.341 60.0463 290.603 59.5494C290.953 59.0526 291.128 58.5143 291.128 57.9346C291.128 57.3549 290.953 56.8581 290.603 56.444C290.253 56.03 289.685 55.823 288.897 55.823C288.11 55.823 286.667 56.444 284.568 57.6862C282.556 58.8455 280.457 60.626 278.27 63.0275C276.171 65.3461 274.291 68.2859 272.629 71.8468C270.967 75.4076 270.093 79.5481 270.005 84.2683C269.918 87.001 270.311 89.2369 271.186 90.9759C272.061 92.715 273.154 94.0813 274.466 95.075C275.778 96.0688 277.221 96.7727 278.795 97.1867C280.37 97.6008 281.9 97.8078 283.387 97.8078Z" fill="black"/>
<path d="M373.258 76.1943C370.634 79.838 367.66 83.3988 364.336 86.8768C361.013 90.272 357.47 93.336 353.709 96.0688C350.036 98.7187 346.231 100.872 342.295 102.528C338.447 104.184 334.686 105.012 331.012 105.012C329.088 105.012 326.989 104.557 324.715 103.646C322.528 102.818 320.517 101.493 318.68 99.671C316.843 97.8492 315.356 95.4891 314.219 92.5907C313.17 89.6924 312.864 86.1729 313.301 82.0324C313.651 78.6372 314.744 75.0764 316.581 71.3499C318.505 67.5406 320.823 64.0626 323.534 60.9158C326.333 57.769 329.438 55.1605 332.849 53.0902C336.348 51.02 339.846 49.9848 343.345 49.9848C346.669 49.9848 349.074 50.7715 350.561 52.3449C352.048 53.9183 352.704 55.8644 352.529 58.1831C352.266 60.7502 351.479 63.1103 350.167 65.2633C348.943 67.4164 347.456 69.3624 345.706 71.1015C343.957 72.8405 342.077 74.4139 340.065 75.8217C338.141 77.2294 336.304 78.513 334.555 79.6723C332.631 80.9145 330.794 82.1152 329.044 83.2746C327.295 84.3511 325.765 85.3448 324.453 86.2557C324.54 88.326 324.934 90.065 325.633 91.4728C326.333 92.8806 327.208 94.0399 328.257 94.9508C329.307 95.7789 330.488 96.4 331.8 96.8141C333.199 97.1453 334.598 97.3109 335.998 97.3109C338.972 97.3109 342.077 96.4414 345.313 94.7024C348.549 92.8806 351.698 90.7275 354.759 88.2432C357.908 85.6761 360.794 83.0261 363.418 80.2934C366.129 77.5607 368.36 75.2006 370.109 73.2131C370.721 72.5506 371.334 72.178 371.946 72.0952C372.646 71.9296 373.17 72.0124 373.52 72.3436C373.957 72.592 374.176 73.0889 374.176 73.8342C374.176 74.4967 373.87 75.2834 373.258 76.1943ZM339.671 57.0651C338.622 57.0651 337.354 57.562 335.867 58.5557C334.467 59.5494 333.068 60.9986 331.668 62.9032C330.269 64.7251 328.957 67.0024 327.732 69.7351C326.508 72.385 325.59 75.449 324.977 78.927C326.027 78.1817 327.164 77.4365 328.388 76.6912C329.613 75.8631 330.838 74.9935 332.062 74.0826C335.823 71.3499 338.447 68.9484 339.934 66.8781C341.421 64.8079 342.252 63.0275 342.427 61.5369C342.601 59.9635 342.427 58.8455 341.902 58.1831C341.377 57.4378 340.634 57.0651 339.671 57.0651Z" fill="black"/>
<path d="M363.156 101.41C362.543 102.321 361.887 102.901 361.188 103.149C360.401 103.48 359.745 103.522 359.22 103.273C358.607 103.108 358.214 102.694 358.039 102.031C357.864 101.369 358.039 100.541 358.564 99.5468C358.826 99.05 359.438 97.932 360.4 96.193C361.275 94.454 362.368 92.3837 363.68 89.9822C364.905 87.4979 366.261 84.848 367.747 82.0324C369.234 79.1341 370.634 76.4013 371.946 73.8342C373.345 71.2671 374.613 68.9898 375.751 67.0024C376.888 64.9321 377.718 63.4415 378.243 62.5306C377.281 61.7025 376.625 61.1228 376.275 60.7916C375.925 60.3775 375.663 59.5494 375.488 58.3073C375.313 57.2307 375.576 55.823 376.275 54.0839C376.975 52.3449 377.893 50.6887 379.03 49.1153C380.167 47.4591 381.436 46.0513 382.835 44.892C384.235 43.7327 385.59 43.153 386.902 43.153C389.351 43.153 391.057 43.8983 392.019 45.3889C393.068 46.8794 393.681 48.4114 393.856 49.9848C394.031 51.0614 393.943 52.4277 393.593 54.0839C393.243 55.7401 392.587 57.2307 391.625 58.5557C391.888 58.7213 392.238 58.9283 392.675 59.1768C393.112 59.3424 393.812 59.4252 394.774 59.4252C396.173 59.4252 397.136 59.3424 397.66 59.1768C398.273 59.0112 399.191 58.9283 400.415 58.9283C401.902 58.9283 403.127 59.301 404.089 60.0463C405.051 60.7088 405.838 61.5783 406.451 62.6548C407.063 63.6485 407.5 64.7665 407.762 66.0086C408.112 67.168 408.331 68.2445 408.418 69.2382C408.681 71.3085 408.112 73.4616 406.713 75.6974C405.314 77.9333 403.608 80.3762 401.596 83.0261C400.372 84.6824 399.147 86.5456 397.923 88.6158C396.698 90.6861 396.173 92.5493 396.348 94.2055C396.523 95.2821 396.829 96.1516 397.267 96.8141C397.704 97.4766 398.929 97.8078 400.94 97.8078C402.427 97.8078 404.045 97.3109 405.795 96.3172C407.631 95.2407 409.468 93.9157 411.305 92.3423C413.229 90.6861 415.11 88.9057 416.946 87.0011C418.783 85.0136 420.489 83.109 422.063 81.2871C423.637 79.3825 424.949 77.6849 425.999 76.1943C427.136 74.7037 427.967 73.6272 428.492 72.9647C428.929 72.3022 429.497 71.8468 430.197 71.5983C430.897 71.3499 431.509 71.3499 432.034 71.5983C432.559 71.8468 432.865 72.3436 432.952 73.0889C433.127 73.8342 432.821 74.8279 432.034 76.0701C431.509 76.8982 430.591 78.2232 429.279 80.045C428.054 81.8668 426.524 83.8957 424.687 86.1315C422.938 88.3674 420.97 90.6861 418.783 93.0876C416.596 95.4063 414.279 97.5594 411.83 99.5468C409.468 101.451 407.063 103.025 404.614 104.267C402.252 105.509 399.978 106.13 397.792 106.13C395.517 106.13 393.637 105.716 392.15 104.888C390.663 104.06 389.439 103.066 388.477 101.907C387.602 100.665 386.946 99.3398 386.509 97.932C386.159 96.4414 386.028 95.075 386.115 93.8329C386.203 92.8392 386.465 91.804 386.902 90.7275C387.427 89.5682 387.996 88.4088 388.608 87.2495C389.308 86.0073 390.007 84.8066 390.707 83.6472C391.494 82.4051 392.194 81.2043 392.806 80.045C394.293 77.6435 395.474 75.6146 396.348 73.9584C397.31 72.2194 397.792 70.7702 397.792 69.6109C397.792 68.8656 397.617 68.2031 397.267 67.6234C396.917 67.0438 396.348 66.7539 395.561 66.7539C395.036 66.7539 394.643 66.7953 394.38 66.8781C394.206 66.8781 393.987 66.8781 393.724 66.8781C393.55 66.8781 393.243 66.9195 392.806 67.0024C392.456 67.0024 391.888 67.0024 391.101 67.0024C389.963 67.0024 389.001 66.8367 388.214 66.5055C387.427 66.1742 386.684 65.9258 385.984 65.7602C385.634 66.3399 384.847 67.582 383.622 69.4867C382.398 71.3913 380.955 73.6272 379.293 76.1943C377.718 78.7614 376.013 81.4528 374.176 84.2683C372.427 87.0839 370.765 89.7338 369.191 92.2181C367.616 94.6196 366.304 96.6899 365.255 98.4289C364.118 100.085 363.418 101.079 363.156 101.41Z" fill="black"/>
<path d="M119.874 10.6711H117.339C117.15 9.73154 116.808 8.86353 116.314 8.06711C115.828 7.26174 115.217 6.55928 114.48 5.95973C113.742 5.36018 112.906 4.89486 111.971 4.56376C111.036 4.23266 110.024 4.06711 108.936 4.06711C107.192 4.06711 105.6 4.51902 104.162 5.42282C102.732 6.32662 101.586 7.65548 100.722 9.4094C99.8683 11.1544 99.4412 13.2931 99.4412 15.8255C99.4412 18.3758 99.8683 20.5235 100.722 22.2685C101.586 24.0134 102.732 25.3378 104.162 26.2416C105.6 27.1365 107.192 27.5839 108.936 27.5839C110.024 27.5839 111.036 27.4183 111.971 27.0872C112.906 26.7562 113.742 26.2953 114.48 25.7047C115.217 25.1051 115.828 24.4027 116.314 23.5973C116.808 22.7919 117.15 21.9195 117.339 20.9799H119.874C119.65 22.2416 119.227 23.4183 118.607 24.5101C117.995 25.5928 117.213 26.5414 116.26 27.3557C115.316 28.17 114.228 28.8054 112.996 29.2617C111.764 29.7181 110.411 29.9463 108.936 29.9463C106.616 29.9463 104.557 29.3691 102.759 28.2148C100.961 27.0515 99.5491 25.4139 98.5241 23.302C97.508 21.1902 97 18.698 97 15.8255C97 12.953 97.508 10.4608 98.5241 8.34899C99.5491 6.23714 100.961 4.60403 102.759 3.44966C104.557 2.28635 106.616 1.7047 108.936 1.7047C110.411 1.7047 111.764 1.93289 112.996 2.38926C114.228 2.83669 115.316 3.47204 116.26 4.2953C117.213 5.10962 117.995 6.05817 118.607 7.14094C119.227 8.22371 119.65 9.40045 119.874 10.6711Z" fill="black"/>
<path d="M135.195 30C133.261 30 131.589 29.5526 130.177 28.6577C128.766 27.7539 127.673 26.5056 126.9 24.9128C126.136 23.311 125.753 21.4676 125.753 19.3826C125.753 17.3065 126.136 15.4631 126.9 13.8523C127.673 12.2327 128.739 10.9664 130.096 10.0537C131.463 9.13199 133.041 8.67114 134.83 8.67114C135.954 8.67114 137.038 8.87696 138.081 9.28859C139.124 9.69128 140.059 10.3132 140.886 11.1544C141.722 11.9866 142.383 13.038 142.869 14.3087C143.354 15.5705 143.597 17.0649 143.597 18.7919V19.9732H127.412V17.8658H141.142C141.142 16.5414 140.873 15.3512 140.333 14.2953C139.803 13.2304 139.061 12.3893 138.108 11.7718C137.164 11.1544 136.071 10.8456 134.83 10.8456C133.518 10.8456 132.362 11.1946 131.364 11.8926C130.366 12.5906 129.584 13.5123 129.017 14.6577C128.46 15.8031 128.177 17.0559 128.168 18.4161V19.6779C128.168 21.3154 128.451 22.7472 129.017 23.9732C129.593 25.1902 130.407 26.1342 131.459 26.8054C132.511 27.4765 133.756 27.8121 135.195 27.8121C136.175 27.8121 137.033 27.66 137.771 27.3557C138.517 27.0515 139.142 26.6443 139.645 26.1342C140.158 25.6152 140.544 25.047 140.805 24.4295L143.085 25.1678C142.77 26.0358 142.253 26.8367 141.534 27.5705C140.823 28.3042 139.933 28.8949 138.863 29.3423C137.802 29.7808 136.579 30 135.195 30Z" fill="black"/>
<path d="M152.807 16.6846V29.5705H150.407V8.95302H152.74V12.1879H152.956C153.441 11.132 154.197 10.2864 155.222 9.65101C156.256 9.00671 157.532 8.68456 159.052 8.68456C160.446 8.68456 161.669 8.97539 162.721 9.55705C163.782 10.1298 164.604 10.9754 165.189 12.094C165.782 13.2125 166.079 14.5861 166.079 16.2148V29.5705H163.678V16.3624C163.678 14.6711 163.202 13.3333 162.249 12.349C161.304 11.3647 160.037 10.8725 158.445 10.8725C157.357 10.8725 156.391 11.1051 155.545 11.5705C154.7 12.0358 154.03 12.7069 153.536 13.5839C153.05 14.4519 152.807 15.4855 152.807 16.6846Z" fill="black"/>
<path d="M182.08 8.95302V11.0336H172.194V8.95302H182.08ZM175.283 4.01342H177.697V24.1879C177.697 25.047 177.845 25.7226 178.142 26.2148C178.439 26.698 178.825 27.0425 179.302 27.2483C179.778 27.4452 180.286 27.5436 180.826 27.5436C181.14 27.5436 181.41 27.5257 181.635 27.4899C181.86 27.4452 182.058 27.4004 182.228 27.3557L182.741 29.5168C182.507 29.6063 182.219 29.6868 181.878 29.7584C181.536 29.8389 181.114 29.8792 180.61 29.8792C179.729 29.8792 178.879 29.6868 178.061 29.302C177.252 28.9172 176.586 28.3445 176.065 27.5839C175.543 26.8233 175.283 25.8792 175.283 24.7517V4.01342Z" fill="black"/>
<path d="M189.052 29.5705V8.95302H191.385V12.1208H191.56C191.974 11.0828 192.693 10.2461 193.718 9.61074C194.752 8.96644 195.921 8.64429 197.225 8.64429C197.423 8.64429 197.643 8.64877 197.886 8.65772C198.128 8.66667 198.331 8.67562 198.493 8.68456V11.1141C198.385 11.0962 198.196 11.0694 197.926 11.0336C197.656 10.9978 197.364 10.9799 197.05 10.9799C195.971 10.9799 195.008 11.2081 194.163 11.6644C193.327 12.1119 192.666 12.7338 192.181 13.5302C191.695 14.3266 191.452 15.2349 191.452 16.255V29.5705H189.052Z" fill="black"/>
<path d="M211.53 30C209.741 30 208.158 29.5481 206.782 28.6443C205.416 27.7405 204.346 26.4922 203.572 24.8993C202.799 23.2975 202.413 21.4497 202.413 19.3557C202.413 17.2438 202.799 15.387 203.572 13.7852C204.346 12.1745 205.416 10.9217 206.782 10.0268C208.158 9.12304 209.741 8.67114 211.53 8.67114C213.319 8.67114 214.897 9.12304 216.264 10.0268C217.631 10.9306 218.701 12.1834 219.474 13.7852C220.256 15.387 220.647 17.2438 220.647 19.3557C220.647 21.4497 220.261 23.2975 219.487 24.8993C218.714 26.4922 217.64 27.7405 216.264 28.6443C214.897 29.5481 213.319 30 211.53 30ZM211.53 27.8121C212.969 27.8121 214.187 27.4273 215.185 26.6577C216.183 25.8881 216.938 24.8635 217.451 23.5839C217.972 22.3043 218.233 20.8949 218.233 19.3557C218.233 17.8166 217.972 16.4027 217.451 15.1141C216.938 13.8255 216.183 12.7919 215.185 12.0134C214.187 11.2349 212.969 10.8456 211.53 10.8456C210.1 10.8456 208.882 11.2349 207.875 12.0134C206.877 12.7919 206.117 13.8255 205.596 15.1141C205.083 16.4027 204.827 17.8166 204.827 19.3557C204.827 20.8949 205.083 22.3043 205.596 23.5839C206.117 24.8635 206.877 25.8881 207.875 26.6577C208.873 27.4273 210.091 27.8121 211.53 27.8121Z" fill="black"/>
<path d="M240.137 29.5705V2.08054H242.659V14.6846H258.331V2.08054H260.853V29.5705H258.331V16.9396H242.659V29.5705H240.137Z" fill="black"/>
<path d="M277.249 30C275.46 30 273.877 29.5481 272.502 28.6443C271.135 27.7405 270.065 26.4922 269.292 24.8993C268.518 23.2975 268.132 21.4497 268.132 19.3557C268.132 17.2438 268.518 15.387 269.292 13.7852C270.065 12.1745 271.135 10.9217 272.502 10.0268C273.877 9.12304 275.46 8.67114 277.249 8.67114C279.038 8.67114 280.616 9.12304 281.983 10.0268C283.35 10.9306 284.42 12.1834 285.193 13.7852C285.975 15.387 286.367 17.2438 286.367 19.3557C286.367 21.4497 285.98 23.2975 285.207 24.8993C284.433 26.4922 283.359 27.7405 281.983 28.6443C280.616 29.5481 279.038 30 277.249 30ZM277.249 27.8121C278.688 27.8121 279.906 27.4273 280.904 26.6577C281.902 25.8881 282.657 24.8635 283.17 23.5839C283.692 22.3043 283.952 20.8949 283.952 19.3557C283.952 17.8166 283.692 16.4027 283.17 15.1141C282.657 13.8255 281.902 12.7919 280.904 12.0134C279.906 11.2349 278.688 10.8456 277.249 10.8456C275.819 10.8456 274.601 11.2349 273.594 12.0134C272.596 12.7919 271.836 13.8255 271.315 15.1141C270.802 16.4027 270.546 17.8166 270.546 19.3557C270.546 20.8949 270.802 22.3043 271.315 23.5839C271.836 24.8635 272.596 25.8881 273.594 26.6577C274.592 27.4273 275.81 27.8121 277.249 27.8121Z" fill="black"/>
<path d="M295.557 2.08054V29.5705H293.156V2.08054H295.557Z" fill="black"/>
<path d="M303.455 29.5705V8.95302H305.87V29.5705H303.455ZM303.563 6.09396L307.016 0H309.862L305.721 6.09396H303.563Z" fill="black"/>
<path d="M327.657 13.4765L325.458 14.094C325.243 13.4765 324.937 12.9172 324.541 12.4161C324.146 11.915 323.629 11.5168 322.99 11.2215C322.361 10.9262 321.578 10.7785 320.643 10.7785C319.241 10.7785 318.09 11.1096 317.191 11.7718C316.291 12.434 315.842 13.2886 315.842 14.3356C315.842 15.2215 316.148 15.9418 316.759 16.4966C317.379 17.0425 318.333 17.4765 319.618 17.7987L322.747 18.5638C324.483 18.9843 325.782 19.651 326.645 20.5638C327.517 21.4765 327.953 22.6219 327.953 24C327.953 25.1633 327.63 26.1969 326.982 27.1007C326.335 28.0045 325.431 28.7159 324.271 29.2349C323.121 29.745 321.785 30 320.266 30C318.243 30 316.575 29.5481 315.262 28.6443C313.949 27.7315 313.108 26.4161 312.74 24.698L315.046 24.1342C315.343 25.3602 315.923 26.2864 316.786 26.9128C317.658 27.5391 318.805 27.8523 320.225 27.8523C321.817 27.8523 323.089 27.4989 324.042 26.7919C324.995 26.0761 325.472 25.1812 325.472 24.1074C325.472 23.2752 325.193 22.5772 324.636 22.0134C324.078 21.4407 323.233 21.0201 322.1 20.7517L318.715 19.9463C316.916 19.5168 315.586 18.8367 314.722 17.906C313.859 16.9754 313.428 15.821 313.428 14.443C313.428 13.3065 313.738 12.3087 314.358 11.4497C314.979 10.5817 315.833 9.90157 316.921 9.4094C318.009 8.91723 319.25 8.67114 320.643 8.67114C322.541 8.67114 324.056 9.10067 325.189 9.95973C326.33 10.8098 327.153 11.9821 327.657 13.4765Z" fill="black"/>
<path d="M342.889 8.95302V11.0336H333.003V8.95302H342.889ZM336.092 4.01342H338.506V24.1879C338.506 25.047 338.654 25.7226 338.951 26.2148C339.248 26.698 339.634 27.0425 340.111 27.2483C340.587 27.4452 341.095 27.5436 341.635 27.5436C341.95 27.5436 342.219 27.5257 342.444 27.4899C342.669 27.4452 342.867 27.4004 343.038 27.3557L343.55 29.5168C343.316 29.6063 343.029 29.6868 342.687 29.7584C342.345 29.8389 341.923 29.8792 341.419 29.8792C340.538 29.8792 339.688 29.6868 338.87 29.302C338.061 28.9172 337.395 28.3445 336.874 27.5839C336.352 26.8233 336.092 25.8792 336.092 24.7517V4.01342Z" fill="black"/>
<path d="M349.888 29.5705V8.95302H352.302V29.5705H349.888ZM351.115 5.4094C350.62 5.4094 350.198 5.24385 349.847 4.91275C349.496 4.57271 349.321 4.16555 349.321 3.69128C349.321 3.217 349.496 2.81432 349.847 2.48322C350.198 2.14318 350.62 1.97315 351.115 1.97315C351.609 1.97315 352.032 2.14318 352.383 2.48322C352.733 2.81432 352.909 3.217 352.909 3.69128C352.909 4.16555 352.733 4.57271 352.383 4.91275C352.032 5.24385 351.609 5.4094 351.115 5.4094Z" fill="black"/>
<path d="M368.263 30C366.41 30 364.796 29.5391 363.421 28.6174C362.054 27.6957 360.993 26.434 360.238 24.8322C359.482 23.2304 359.105 21.4049 359.105 19.3557C359.105 17.2886 359.487 15.4497 360.251 13.8389C361.024 12.2282 362.094 10.9664 363.461 10.0537C364.828 9.13199 366.415 8.67114 368.222 8.67114C369.607 8.67114 370.861 8.9396 371.985 9.47651C373.109 10.0045 374.035 10.7517 374.763 11.7181C375.501 12.6756 375.964 13.7942 376.153 15.0738H373.725C373.473 13.9105 372.866 12.9172 371.904 12.094C370.951 11.2617 369.737 10.8456 368.263 10.8456C366.941 10.8456 365.772 11.2036 364.756 11.9195C363.74 12.6264 362.944 13.6152 362.369 14.8859C361.802 16.1477 361.519 17.6107 361.519 19.2752C361.519 20.9485 361.798 22.4295 362.355 23.7181C362.913 24.9978 363.695 26 364.702 26.7248C365.718 27.4497 366.905 27.8121 368.263 27.8121C369.18 27.8121 370.016 27.6421 370.771 27.302C371.535 26.953 372.174 26.4608 372.686 25.8255C373.208 25.1902 373.559 24.434 373.738 23.557H376.166C375.986 24.8009 375.541 25.9105 374.831 26.8859C374.13 27.8523 373.217 28.613 372.093 29.1678C370.978 29.7226 369.701 30 368.263 30Z" fill="black"/>
<path d="M390.883 30C389.093 30 387.511 29.5481 386.135 28.6443C384.768 27.7405 383.698 26.4922 382.925 24.8993C382.152 23.2975 381.765 21.4497 381.765 19.3557C381.765 17.2438 382.152 15.387 382.925 13.7852C383.698 12.1745 384.768 10.9217 386.135 10.0268C387.511 9.12304 389.093 8.67114 390.883 8.67114C392.672 8.67114 394.25 9.12304 395.617 10.0268C396.983 10.9306 398.053 12.1834 398.827 13.7852C399.609 15.387 400 17.2438 400 19.3557C400 21.4497 399.613 23.2975 398.84 24.8993C398.067 26.4922 396.992 27.7405 395.617 28.6443C394.25 29.5481 392.672 30 390.883 30ZM390.883 27.8121C392.321 27.8121 393.54 27.4273 394.538 26.6577C395.536 25.8881 396.291 24.8635 396.804 23.5839C397.325 22.3043 397.586 20.8949 397.586 19.3557C397.586 17.8166 397.325 16.4027 396.804 15.1141C396.291 13.8255 395.536 12.7919 394.538 12.0134C393.54 11.2349 392.321 10.8456 390.883 10.8456C389.453 10.8456 388.235 11.2349 387.228 12.0134C386.229 12.7919 385.47 13.8255 384.948 15.1141C384.436 16.4027 384.179 17.8166 384.179 19.3557C384.179 20.8949 384.436 22.3043 384.948 23.5839C385.47 24.8635 386.229 25.8881 387.228 26.6577C388.226 27.4273 389.444 27.8121 390.883 27.8121Z" fill="black"/>
<path d="M429.22 3.49115C429.22 3.49115 428.852 3.70251 428.497 3.94766C428.275 4.12596 428.101 4.38891 427.92 4.61148C427.115 5.90586 426.519 7.95326 426.3 10.7188C426.203 12.6929 426.263 14.2774 426.796 17.1156C427.091 18.6838 427.029 18.7007 426.957 18.9802C426.903 19.1385 426.6 19.7617 426.436 20.3126C426.412 20.4589 426.396 20.6148 426.393 20.7834C426.311 21.3674 426.31 22.4985 426.245 23.3464C426.226 23.673 425.988 24.8363 425.8 25.4288C425.561 26.1808 425.395 27.1935 425.395 27.1935C425.395 27.1935 425.367 27.3882 425.366 27.6449C425.365 27.9016 425.481 28.2372 425.62 28.498C425.193 29.4279 424.815 30.6617 424.82 31.1781C424.79 31.4228 424.743 32.1751 424.812 32.5887C424.815 32.8215 424.887 33.7246 425.405 34.6024C425.236 34.7657 425.17 34.7389 424.838 34.9902C424.496 35.2636 424.5 35.3167 424.247 35.6258C424.02 35.9969 423.833 36.3327 423.789 36.4179C423.545 36.8332 422.697 38.5732 422.563 38.7764C422.35 39.1016 422.215 39.5101 421.553 40.1132C421.513 40.6145 421.561 40.5571 421.384 41.2311C421.374 41.2681 421.201 41.7061 421.144 42.0341C420.975 42.3257 420.964 42.8612 421.073 43.2908C420.643 43.7082 420.442 44.1414 420.268 44.6366C420.142 44.946 420.083 45.3592 420.06 45.607C420.041 45.9079 420.009 46.3498 420.118 46.6074C420.17 46.9882 420.491 47.4007 420.437 47.5333C420.233 48.2285 420.195 48.5152 420.241 49.0995C420.235 49.4314 420.349 50.0945 420.501 50.49C420.676 50.9464 420.971 51.2969 421.171 51.5577C421.449 52.0817 421.669 52.9417 421.831 53.2388C421.967 53.6021 422.406 53.724 422.565 53.8951C422.724 54.0662 423.063 54.793 423.193 55.0743C423.286 55.3512 423.717 55.4919 424.323 55.7703C424.388 55.8656 424.878 56.6221 425.196 57.0409C425.733 57.7462 425.962 57.9416 426.895 57.9842C427.495 58.1497 428.522 58.976 429.079 59.1237C429.705 59.2898 430.008 58.9848 430.685 58.8983C431.432 58.8917 431.769 59.0726 432.276 58.8985C433.17 58.5914 433.588 58.0659 434.036 57.784C434.435 57.4311 434.705 57.2522 435.047 56.9328C435.544 56.5935 437.773 54.4088 437.773 54.4088C437.773 54.4088 439.783 52.3926 440.445 51.5802C441.714 50.2164 443.466 47.9157 443.825 47.5981C443.66 47.9429 443.182 49.1895 442.463 51.033C441.778 52.7875 441.608 53.7214 441.561 54.3453C441.542 54.6462 441.576 55.0712 441.641 55.3546C441.845 55.2313 441.663 55.3635 441.996 55.1122C441.996 55.1122 442.135 54.9887 442.284 54.8431C442.879 54.2607 443.292 53.6821 444.086 51.9716C444.959 50.0904 445.633 48.7144 445.718 48.4402C445.656 48.5949 445.211 52.6831 445.234 53.5152C445.214 53.9445 445.135 56.0465 445.133 56.6883C445.132 57.022 445.109 57.9306 445.087 58.1354C445.035 58.6787 445.091 59.5251 445.137 60.1095C445.132 60.313 445.161 61.6985 445.274 62.2475C445.399 62.8286 445.503 63.7772 445.973 64.4581C446.34 64.9901 447.077 65.2462 447.263 65.7764C447.593 66.2952 447.5 66.2064 447.76 66.517C448.011 66.7213 448.819 66.945 449.34 67.0528C449.702 67.1733 449.813 67.0896 450.912 67.6107C451.415 67.891 451.817 67.9763 452.268 67.8758C452.772 67.8352 453.081 67.6429 453.958 67.6329C454.268 67.6294 454.307 67.7225 454.884 67.8203C455.443 67.7701 455.824 67.5898 456.207 67.5321C456.802 67.4647 457.038 67.6364 457.383 67.5444C457.622 67.4809 457.856 67.3453 458.06 67.2265C458.268 67.1051 458.855 66.7184 459.133 66.7087C459.411 66.7184 459.464 66.8425 459.921 66.6931C460.181 66.5923 460.602 66.3767 460.945 66.1296C461.437 65.8655 461.885 65.3031 462.197 64.6817C462.483 64.1259 462.827 64.2675 463.128 64.0294C463.349 63.9355 463.927 63.4641 464.078 63.2046C464.282 62.9529 464.473 62.6702 464.67 62.2096C464.937 61.6749 465.029 61.188 465.06 60.7733C465.131 60.7248 465.1 60.738 465.543 60.5313C465.695 60.1555 465.913 59.8065 466.194 59.1745C466.474 58.6708 466.337 58.8208 466.705 58.3528C467.092 57.9689 467.134 57.2918 467.174 56.1766C467.251 55.6679 467.349 55.4248 467.483 55.0932C467.559 54.8412 467.625 54.7132 467.723 54.3418C467.857 54.0102 467.956 53.7671 468.148 53.0994C468.303 52.5647 468.249 52.7542 468.259 52.3471C468.237 51.9268 468.137 51.8864 468.072 51.603C468.324 51.5506 468.82 51.3396 468.82 51.3396L469.467 51.0096C469.467 51.0096 470.589 50.203 471.074 49.3193C471.853 48.0912 471.88 47.7682 472.263 47.0745C472.467 46.9487 472.963 46.8685 473.312 46.3926C473.649 46.066 473.79 45.7114 474.088 45.1635C474.341 44.6998 474.754 43.8258 475.139 43.3254C475.518 42.8381 476.042 42.1869 476.205 42.0849C476.407 41.9418 477.17 41.119 477.604 40.4648C477.995 39.8752 478.062 39.4582 478.175 39.1785C478.477 38.9404 479.049 38.4774 479.989 37.803C482.856 35.1885 482.443 35.5103 484.714 33.5417C485.404 32.4387 486.187 31.2962 486.819 30.2078C487.235 29.0643 487.797 28.2143 487.673 27.6154C487.496 26.7353 487.87 27.1291 486.612 26.6208C485.597 26.2106 482.881 25.303 480.627 25.2311C478.271 25.025 472.424 25.8058 469.682 26.8095C466.882 27.4477 461.839 29.9686 457.981 32.1318C456.029 33.2344 452.792 35.5083 451.367 36.5558C451.367 36.5558 451.055 36.8188 450.741 37.0259C450.426 37.233 450.054 37.3912 450.054 37.3912L449.975 37.3334C450.064 36.984 450.427 36.9763 450.977 36.5043C451.48 36.0732 451.268 35.5935 451.203 35.31C451.067 35.075 451.054 35.044 451.023 34.9289C451.189 34.3274 454.385 31.1193 454.385 31.1193C454.385 31.1193 456.943 28.5363 459.584 26.7664C462.152 24.9212 463.062 25.0832 463.788 24.9393C464.383 24.9357 465.063 24.1722 464.697 24.0242C461.68 24.6277 459.79 26.0013 458.523 26.8518C456.128 28.838 454.257 30.5359 450.997 34.0084L450.788 34.2069L450.574 34.3929C450.574 34.3929 450.421 34.3638 450.328 34.3295C450.241 34.2976 450.107 34.2403 450.107 34.2403L449.975 34.1868C449.975 34.1868 450.01 33.6142 450.012 33.585C450.063 33.1426 450.228 30.3422 450.238 30.0094C450.346 26.6077 450.01 23.9011 449.471 21.6777C449.001 19.4132 447.934 17.3543 447.358 17.1217C447.205 17.0599 447.068 17.3313 447.092 17.6536C447.117 17.9936 447.195 18.1883 447.411 18.4512C447.557 18.6297 447.675 18.8149 447.917 19.0414C448.271 19.3723 448.797 20.2965 448.797 20.2965C448.797 20.2965 449.004 20.3546 449.593 23.6005C449.703 24.5052 449.888 27.342 449.86 29.6736C449.834 31.8911 449.5 33.9976 449.399 34.2469C449.362 34.3387 448.96 34.5067 448.96 34.5067C448.96 34.5067 448.66 34.6454 448.469 34.8964C448.333 35.0743 448.458 35.4539 448.497 35.6533C448.561 35.9843 448.57 36.2997 448.57 36.2997C448.57 36.2997 448.643 36.5626 448.562 36.7627C448.41 37.1385 448.319 36.5102 448.225 35.881C448.153 35.3962 448.052 34.9112 448.052 34.9112C447.741 33.0116 447.37 30.8602 446.739 28.5958C445.52 23.4496 443.046 17.5648 440.862 14.0088C439.883 12.3019 439.276 11.3986 438.102 10.0395C435.702 7.26121 434.33 6.20033 431.355 4.56246C430.53 4.10856 429.22 3.49115 429.22 3.49115Z" fill="#008F39"/>
<path d="M486.145 26.4132C481.629 24.7676 476.627 24.7879 470.741 26.4814C467.77 27.3355 464.029 28.8401 461.244 30.3011C457.307 32.3678 453.543 34.7505 451.382 36.5429C450.641 37.1533 450.061 37.4907 450.014 37.324C449.982 37.2103 450.211 36.9942 450.588 36.7783C451.341 36.352 451.497 35.9514 451.19 35.2443L451.041 34.9124L451.189 34.667C451.772 33.6813 454.768 30.6243 456.861 28.8742C457.856 28.0394 459.392 26.8694 460.149 26.372C460.898 25.8781 461.838 25.4028 462.327 25.2699C462.533 25.216 463.002 25.1404 463.373 25.1004C464.123 25.0244 464.417 24.8971 464.627 24.5604C464.802 24.2804 464.823 24.1107 464.694 24.0533C464.561 23.9938 463.71 24.1708 462.979 24.4012C462.257 24.6356 460.909 25.2994 460.035 25.8503C457.655 27.3532 454.741 29.9561 451.509 33.4575C450.985 34.0257 450.644 34.3573 450.591 34.3534C450.542 34.3515 450.392 34.3045 450.249 34.254L449.989 34.1577L450.089 32.9097C450.353 29.6403 450.298 26.4673 449.944 23.9631C449.525 21.0384 448.697 18.5345 447.792 17.5007C447.328 16.9618 447.113 16.9984 447.09 17.6179C447.075 17.9959 447.292 18.4109 447.738 18.8685C447.929 19.0595 448.129 19.2884 448.19 19.3751C448.714 20.1394 449.272 22.1118 449.546 24.1894C449.924 27.0826 449.919 30.8717 449.521 33.6636L449.44 34.264L448.995 34.496C448.753 34.6197 448.509 34.7827 448.454 34.8574C448.309 35.058 448.306 35.3483 448.454 35.9312C448.591 36.4762 448.595 36.6769 448.466 36.7919C448.404 36.8439 448.378 36.7791 448.337 36.4889C447.229 28.7494 444.976 21.5991 441.71 15.4741C439.852 11.9934 437.816 9.32108 435.504 7.34083C433.881 5.95316 432.525 5.07621 430.411 4.05938L429.227 3.49075L428.908 3.67335C428.323 4.00869 427.971 4.42797 427.53 5.30485C426.268 7.83663 425.878 12.6341 426.63 16.2838C427.13 18.6813 427.126 18.6399 426.769 19.4413C426.633 19.7453 426.486 20.1369 426.442 20.3095C426.398 20.4821 426.341 21.2389 426.317 21.9969C426.266 23.5786 426.204 24.0147 425.849 25.2547C425.329 27.0974 425.261 27.6701 425.498 28.2134L425.618 28.4991L425.31 29.2631C425.079 29.8426 424.98 30.163 424.905 30.5798C424.645 31.9884 424.811 33.5672 425.314 34.4149C425.368 34.5051 425.402 34.6001 425.392 34.6222C425.383 34.6444 425.262 34.7296 425.125 34.8012C424.566 35.1151 424.232 35.5425 423.613 36.7574C422.33 39.2602 422.272 39.3667 421.782 39.8706L421.553 40.1129L421.537 40.4571C421.529 40.6723 421.458 41.005 421.354 41.3233C421.006 42.3874 420.951 42.6946 421.046 43.0749L421.092 43.2678L420.865 43.5177C420.705 43.7045 420.583 43.9022 420.425 44.2559C420.171 44.8252 420.086 45.1648 420.051 45.7857C420.021 46.3224 420.109 46.7662 420.322 47.1661C420.471 47.4379 420.472 47.4717 420.376 47.7604C420.166 48.4288 420.184 49.4377 420.43 50.2699C420.563 50.7136 420.645 50.8629 421.155 51.5348C421.24 51.6524 421.424 52.0924 421.559 52.5174C421.759 53.1436 421.841 53.3191 422.001 53.4771C422.11 53.5788 422.259 53.6914 422.327 53.7221C422.543 53.8185 422.771 54.1122 422.966 54.5639C423.288 55.3109 423.268 55.2821 423.819 55.5413L424.322 55.7725L424.902 56.6083C425.666 57.7116 425.898 57.8949 426.569 57.9358C426.972 57.957 427.347 58.1177 427.927 58.5093C428.16 58.6663 428.55 58.88 428.789 58.9867C429.287 59.2159 429.477 59.2214 430.133 59.0237C430.637 58.8707 430.921 58.8517 431.381 58.9314C431.865 59.0212 432.173 58.9732 432.648 58.7348C433.347 58.3908 434.917 57.1096 436.753 55.3908C438.761 53.51 440.526 51.5674 443.269 48.2251C443.586 47.8363 443.834 47.563 443.819 47.6092C443.809 47.6575 443.526 48.3662 443.193 49.1855C441.818 52.5749 441.419 54.0606 441.612 55.1344L441.648 55.3495L441.802 55.2523C442.227 54.9914 442.855 54.251 443.309 53.4796C443.434 53.2633 444.023 52.0417 444.616 50.7622C445.202 49.4861 445.699 48.4483 445.717 48.4565C445.731 48.4627 445.701 48.7876 445.645 49.1734C445.349 51.2815 445.211 53.169 445.13 56.2149C445.002 60.91 445.223 63.143 445.932 64.368C446.099 64.648 446.199 64.7456 446.776 65.1689C446.956 65.2958 447.107 65.4891 447.305 65.8359C447.463 66.0988 447.637 66.3754 447.693 66.4469C447.865 66.6428 448.383 66.8408 449.196 67.0184C449.816 67.1492 450.092 67.2461 450.799 67.562C451.764 67.9928 451.725 67.982 452.655 67.8005C453.575 67.6149 453.957 67.5866 454.343 67.6858C454.541 67.7347 454.774 67.7924 454.864 67.8128C454.955 67.8331 455.272 67.7761 455.584 67.6831C456.296 67.4708 456.431 67.4516 456.873 67.5231C457.352 67.5978 457.537 67.5412 458.224 67.1124C458.872 66.712 459.062 66.6444 459.364 66.7198C459.692 66.7999 460.062 66.6737 460.702 66.2768C461.449 65.8146 461.702 65.5564 462.079 64.8832C462.42 64.2798 462.48 64.2203 462.76 64.1599C463.195 64.0624 463.734 63.6465 464.209 63.0371C464.553 62.6006 464.963 61.657 465.033 61.1312L465.09 60.7323L465.325 60.6121L465.561 60.4919L466.012 59.5536C466.39 58.7811 466.507 58.5682 466.716 58.3364C467.025 57.9773 467.058 57.8661 467.13 56.8644C467.197 55.8869 467.238 55.7329 467.738 54.3786C468.31 52.8508 468.398 52.3332 468.191 51.8099C468.149 51.7052 468.124 51.6012 468.134 51.5791C468.141 51.5625 468.24 51.5269 468.35 51.5031C468.681 51.439 469.414 51.07 469.793 50.7755C470.594 50.1655 471.247 49.2706 471.913 47.8908L472.323 47.0464L472.656 46.9038C473.253 46.6532 473.498 46.3385 474.356 44.7393C475.159 43.2355 475.438 42.8565 476.526 41.7648C477.479 40.8046 477.792 40.3613 478.07 39.5774L478.218 39.1596L478.799 38.7098C481.085 36.9597 482.474 35.8102 483.461 34.8458C485.199 33.1495 486.47 31.3639 487.161 29.644C487.595 28.5719 487.718 27.9507 487.636 27.2841L487.597 26.9884L487.19 26.8134C486.967 26.7204 486.495 26.5429 486.145 26.4132ZM483.821 26.1641C484.005 26.4055 483.993 26.5324 483.783 26.6443C483.503 26.7909 483.053 26.7622 482.514 26.5615C482.038 26.3819 482.031 26.3723 482.083 26.2562C482.349 25.6593 483.394 25.6023 483.821 26.1641ZM486.992 27.9114C487.053 27.985 487.067 28.0512 487.029 28.1134C486.983 28.1791 486.899 28.1814 486.634 28.0962C486.442 28.0439 486.249 27.9577 486.199 27.922C486.115 27.8513 486.118 27.8327 486.208 27.7799C486.437 27.637 486.805 27.7018 486.992 27.9114ZM484.837 27.8375C484.967 28.0281 484.995 28.3721 484.899 28.5877C484.791 28.8309 484.417 28.9888 484.128 28.9196C483.586 28.7899 483.204 28.1886 483.438 27.836C483.808 27.2787 484.464 27.2796 484.837 27.8375ZM433.292 6.0616C433.447 6.2962 433.515 6.71113 433.43 6.83904C433.312 7.01812 431.952 6.22533 431.793 5.88936C431.716 5.71586 431.923 5.53645 432.233 5.50906C432.578 5.4774 433.096 5.74855 433.292 6.0616ZM481.894 27.6301C482.326 27.9092 482.651 28.3397 482.669 28.6458C482.701 29.3161 482.11 29.7018 481.286 29.5463C480.5 29.3941 479.307 28.5365 478.973 27.8902C478.772 27.4889 479.095 27.1359 479.733 27.0631C480.442 26.9818 481.213 27.1803 481.894 27.6301ZM486.097 29.9046C486.235 30.2378 485.977 30.3947 485.504 30.2696C485.192 30.1901 485.065 30.0671 485.135 29.9124C485.305 29.531 485.942 29.5238 486.097 29.9046ZM429.201 4.84469C429.454 5.11684 429.283 5.19267 428.851 4.99982C428.736 4.94853 428.615 4.87451 428.581 4.83947C428.522 4.77348 428.566 4.60089 428.655 4.56124C428.728 4.52096 429.063 4.69694 429.201 4.84469ZM478.576 27.0503C478.622 27.157 478.628 27.2791 478.588 27.3937C478.5 27.6527 478.316 27.683 477.93 27.5107C477.659 27.3896 477.62 27.3525 477.605 27.2133C477.59 26.9747 477.672 26.7061 477.777 26.6671C478.01 26.5786 478.462 26.8004 478.576 27.0503ZM476.442 26.177C476.418 26.2322 476.327 26.3243 476.242 26.3791C476.05 26.4992 475.435 26.5822 475.164 26.5211L474.97 26.4743L475.137 26.3364C475.562 25.9762 476.588 25.8509 476.442 26.177ZM431.1 6.19615C431.4 6.4495 431.411 6.90533 431.127 7.20918C430.948 7.4009 430.686 7.46949 430.355 7.40799C430.119 7.36888 430.057 7.33463 429.91 7.16966C429.691 6.91945 429.673 6.71262 429.841 6.42301C429.994 6.16655 430.282 6.00338 430.593 6.00979C430.846 6.01021 430.897 6.03278 431.1 6.19615ZM476.836 27.1348C476.927 27.2152 476.919 27.2317 476.708 27.6546C476.375 28.3145 475.924 28.6701 475.328 28.7351C475.074 28.7609 474.464 28.6211 474.295 28.4928C474.2 28.4235 474.202 28.4049 474.343 28.1761C475.025 27.0686 476.207 26.5689 476.836 27.1348ZM484.052 30.4496C484.216 30.6359 484.266 30.8702 484.18 31.0636C483.995 31.4781 483.413 31.6824 482.972 31.4854C482.692 31.3603 482.347 31.0471 482.241 30.8144C482.065 30.444 482.496 30.0334 483.049 30.0417C483.328 30.0468 483.907 30.2791 484.052 30.4496ZM434.498 8.85367C434.902 9.21974 434.965 9.4864 434.707 9.75567C434.399 10.0886 433.653 10.2659 432.942 10.1803C432.691 10.1482 432.468 10.0683 432.057 9.86505C431.553 9.61316 431.493 9.57339 431.289 9.27691C431.047 8.94334 430.967 8.62915 431.047 8.32677C431.166 7.84974 431.888 7.77458 433.034 8.12059C433.475 8.25754 434.282 8.65793 434.498 8.85367ZM474.305 26.5217C474.297 26.5382 474.187 26.6483 474.064 26.7653C473.599 27.2009 472.848 27.4024 472.306 27.2334L472.034 27.1517L472.156 27.014C472.474 26.659 472.847 26.4672 473.355 26.4025C473.719 26.3528 474.344 26.4332 474.305 26.5217ZM437.979 10.8322C438.246 11.1236 438.372 11.4715 438.283 11.6704C438.238 11.7699 438.215 11.7728 438.101 11.6821C437.666 11.3355 437.43 10.8654 437.548 10.6001C437.61 10.4619 437.676 10.4982 437.979 10.8322ZM436.155 10.0178C436.39 10.3679 435.879 10.723 435.429 10.5219C435.162 10.4029 435.045 10.1585 435.146 9.93193C435.255 9.68876 435.503 9.62712 435.811 9.76458C435.949 9.82612 436.101 9.94072 436.155 10.0178ZM480.542 29.8305C481.014 30.1804 481.28 30.5112 481.384 30.8825C481.444 31.0816 481.454 31.245 481.417 31.3017C481.342 31.4206 480.777 31.5393 480.396 31.5152C479.925 31.4839 478.932 31.007 478.443 30.5702C477.871 30.0627 477.523 29.5095 477.523 29.1254L477.53 28.9364L477.819 28.9325C478.226 28.922 478.441 28.9453 478.758 29.0138C479.183 29.1108 480.193 29.5753 480.542 29.8305ZM428.585 7.08849C428.57 7.60512 428.4 7.60232 427.835 7.09134C427.721 6.98763 427.635 6.88313 427.645 6.86102C427.677 6.78917 428.037 6.63814 428.188 6.63274C428.267 6.6283 428.389 6.66301 428.461 6.70136C428.57 6.76371 428.592 6.82639 428.585 7.08849ZM437.361 11.4774C437.594 11.7937 437.741 12.3297 437.717 12.7767C437.693 13.1637 437.498 13.7859 437.393 13.8118C437.295 13.8342 436.738 13.4398 436.466 13.1594C436.176 12.8709 436.007 12.4108 436.055 12.081C436.074 11.9637 436.167 11.7198 436.26 11.536C436.402 11.2679 436.459 11.2008 436.614 11.1374C436.856 11.04 437.125 11.1665 437.361 11.4774ZM483.968 32.5003C484.063 32.6951 483.901 33.0206 483.637 33.1809C483.269 33.4009 482.889 33.3376 482.714 33.0272C482.582 32.8028 482.627 32.5909 482.846 32.4101C483.188 32.1253 483.812 32.1719 483.968 32.5003ZM439.263 12.5985C439.792 13.0668 440.116 13.7484 440.034 14.2287L440.007 14.3757L439.721 14.2016C439.339 13.9713 439.066 13.6572 438.933 13.2997C438.838 13.0318 438.76 12.4535 438.807 12.3485C438.836 12.2821 439.015 12.3753 439.263 12.5985ZM476.8 29.5847C476.824 29.6681 476.591 29.9289 476.358 30.0698C475.815 30.3974 474.904 30.2892 474.423 29.8358C474.308 29.7245 474.183 29.5829 474.157 29.5182C474.107 29.4094 474.119 29.3949 474.383 29.2477C474.814 29.0095 475.326 28.973 475.906 29.1322C476.224 29.2214 476.777 29.5013 476.8 29.5847ZM430.108 8.93518C430.27 9.14009 430.386 9.60932 430.315 9.7696C430.285 9.83592 430.162 9.90052 429.975 9.94951C429.108 10.1521 428.336 9.72125 428.422 9.08366C428.453 8.8656 428.483 8.81239 428.621 8.6622C428.968 8.29329 429.701 8.42843 430.108 8.93518ZM434.338 11.4337C434.526 11.5571 434.69 11.6834 434.698 11.7137C434.732 11.835 434.503 12.0641 434.202 12.208C433.588 12.4973 432.72 12.4674 431.797 12.1282C431.311 11.9445 430.527 11.5151 430.263 11.2912C430.145 11.1855 430.22 10.9934 430.485 10.7338C430.924 10.2935 431.489 10.201 432.3 10.4441C432.706 10.5723 433.863 11.1286 434.338 11.4337ZM471.512 27.9992C471.412 28.1134 470.08 28.6654 469.544 28.8171C469.282 28.8856 468.803 28.9833 468.476 29.0232C467.891 29.0999 466.79 29.0855 466.767 29.0021C466.741 28.9112 467.214 28.579 467.68 28.3628C468.638 27.9088 469.856 27.7103 470.971 27.8171C471.52 27.8702 471.601 27.8996 471.512 27.9992ZM481.963 33.4742L482.132 33.6887L481.926 34.1137L481.719 34.5386L481.395 34.586C481.157 34.6256 481.004 34.6103 480.829 34.5323C480.616 34.4435 480.575 34.3988 480.52 34.1886C480.397 33.7491 480.722 33.132 481.14 33.0338C481.362 32.9806 481.736 33.1805 481.963 33.4742ZM478.348 31.8072C478.794 32.1055 479.119 32.476 479.222 32.7873L479.308 33.0642L479.083 33.3948C478.694 33.9701 478.148 34.2563 477.505 34.2146C476.45 34.1476 475.647 33.1926 475.832 32.2347C476.025 31.2339 477.199 31.0356 478.348 31.8072ZM436.174 13.3337C436.506 13.6014 436.641 13.794 436.752 14.1487C436.848 14.4767 436.828 14.5471 436.621 14.5672C435.819 14.6337 435.134 14.268 434.849 13.6104C434.691 13.2483 434.77 12.7266 434.978 12.7534C435.182 12.7781 435.916 13.1326 436.174 13.3337ZM474.111 30.4122C474.206 30.5077 474.306 30.6652 474.344 30.7548L474.412 30.9111L474.139 31.028C473.561 31.2736 472.818 31.2599 472.225 30.9952C471.821 30.8147 471.618 30.6513 471.551 30.4557C471.495 30.298 471.658 30.0925 471.962 29.9431C472.581 29.6428 473.607 29.8624 474.111 30.4122ZM440.559 15.7688C441.047 16.1925 441.488 16.7474 441.812 17.3427C442.09 17.8444 442.545 19.0352 442.5 19.1347C442.461 19.2231 441.969 18.9042 441.581 18.5388C441.134 18.1205 440.547 17.2882 440.279 16.6782C440.014 16.0757 439.743 15.3119 439.775 15.24C439.807 15.1682 440.1 15.365 440.559 15.7688ZM428.394 10.3307C428.532 10.5647 428.562 10.8563 428.473 11.0553C428.35 11.3316 427.836 11.3342 427.569 11.0559C427.27 10.7502 427.338 10.1906 427.696 10.0189C427.932 9.89866 428.207 10.0217 428.394 10.3307ZM433.69 14.1204C433.908 14.423 433.929 14.7574 433.756 15.1443C433.369 15.9989 432.476 16.2961 431.53 15.8735C430.661 15.4857 430.224 14.6873 430.462 13.9319C430.592 13.519 430.81 13.3251 431.174 13.3016C432.095 13.2361 433.349 13.6499 433.69 14.1204ZM437.769 15.9684C438.005 16.2792 438.129 16.6194 438.101 16.9051C438.078 17.1535 437.98 17.189 437.531 17.0948C437.145 17.0218 436.677 16.7732 436.314 16.4519C436.03 16.1991 435.508 15.5418 435.54 15.4699C435.574 15.3926 435.926 15.2581 436.141 15.2345C436.474 15.2043 436.633 15.2423 437.108 15.4743C437.489 15.6577 437.596 15.7387 437.769 15.9684ZM479.231 34.3356C479.255 34.5052 479.184 34.7124 478.988 35.0159L478.797 35.3214L478.53 35.2024C478.273 35.0876 478.266 35.0779 478.289 34.8896C478.33 34.5894 478.435 34.4042 478.614 34.2855C478.869 34.1211 479.203 34.1509 479.231 34.3356ZM429.315 12.379C429.485 12.6273 429.536 12.9947 429.435 13.2213C429.351 13.4092 429.023 13.6139 428.776 13.6232C428.539 13.6365 428.112 13.4457 427.968 13.2621C427.695 12.9217 427.742 12.4588 428.078 12.2113C428.507 11.8924 429.026 11.9649 429.315 12.379ZM470.472 31.2067C470.524 31.2631 470.559 31.3319 470.547 31.3595C470.535 31.3872 470.319 31.5363 470.067 31.6952C469.306 32.1643 468.146 33.3301 467.468 34.3065C467.362 34.458 467.225 34.6288 467.166 34.6753C467.099 34.7252 466.778 34.8271 466.444 34.8966C464.514 35.3205 462.623 36.3588 461.692 37.5072C461.608 37.6089 461.433 37.7296 461.299 37.7825C461.165 37.8354 459.898 38.0189 458.485 38.1966C455.839 38.5329 455.657 38.5708 453.185 39.2699C451.895 39.6286 450.912 39.6937 450.117 39.4512L449.792 39.3525L449.946 39.0698C450.367 38.3102 451.118 37.4922 451.971 36.8655C452.77 36.2742 453.178 36.0388 455.584 34.76C456.161 34.4543 457.047 33.962 457.559 33.6669C458.074 33.3663 458.958 32.8533 459.525 32.5228C460.714 31.8342 462.743 30.8181 463.468 30.5519C465.331 29.8724 466.825 29.7971 468.42 30.2972C469.02 30.4853 470.364 31.0789 470.472 31.2067ZM473.371 32.6006C474.038 33.1305 474.248 33.9201 473.988 34.9576C473.626 36.3997 472.677 37.4144 471.586 37.5241C470.939 37.5928 470.151 37.3206 469.518 36.8126C469.049 36.4309 467.551 35.0724 467.531 35.0042C467.508 34.934 468.637 33.2441 468.945 32.8981C469.305 32.4884 469.563 32.2923 469.956 32.1163C470.87 31.7094 472.549 31.9485 473.371 32.6006ZM480.378 36.1734C480.354 36.2887 480.287 36.451 480.232 36.5257C479.991 36.8556 479.373 36.9441 479.331 36.6539C479.313 36.4733 479.482 36.1182 479.661 35.9658C479.808 35.8459 479.98 35.817 480.216 35.8692C480.41 35.916 480.426 35.9429 480.378 36.1734ZM440.761 19.2661C442.774 20.5095 443.601 21.9526 444.997 26.6261C445.258 27.4983 445.745 29.0744 446.08 30.1256C446.828 32.4745 447.408 34.5958 447.525 35.4437C447.667 36.4349 447.611 37.2255 447.345 38.1072L447.264 38.3627L446.872 38.1414C446.466 37.914 445.971 37.4938 445.628 37.0889C445.346 36.7575 445.156 36.4672 444.402 35.2425C443.026 33.0042 442.084 31.6953 441.139 30.703C440.046 29.5588 439.955 29.366 439.999 28.2321C440.058 26.7407 439.839 26.0464 438.633 23.9833L438.059 22.9979L438.155 22.5106C438.385 21.3669 438.375 20.0304 438.139 18.7319C438.066 18.328 438.066 18.2287 438.139 18.2146C438.379 18.1696 440.12 18.874 440.761 19.2661ZM476.934 35.5568C477.226 36.0254 477.1 36.7645 476.644 37.2304C475.983 37.9095 474.717 37.5101 474.729 36.6204C474.738 35.9086 475.39 35.1261 476.024 35.0644C476.338 35.039 476.753 35.2575 476.934 35.5568ZM430.203 14.8964C430.174 15.1951 430.077 15.5231 429.981 15.6393C429.914 15.7286 429.865 15.7267 429.631 15.622L429.36 15.501L429.403 15.156C429.476 14.5254 429.59 14.4173 429.997 14.5923C430.203 14.6847 430.217 14.7039 430.203 14.8964ZM437.049 18.1126C437.874 18.746 438.222 19.5971 438.094 20.6604C438.032 21.1696 437.686 23.0565 437.65 23.0739C437.615 23.0913 436.349 23.063 435.528 23.0275C435.186 23.0143 434.711 22.9547 434.476 22.8894C433.195 22.5494 432.385 21.4518 432.444 20.146C432.467 19.7252 432.48 19.6714 432.753 19.071C432.987 18.5459 433.08 18.3884 433.286 18.162C433.891 17.4977 434.624 17.2618 435.57 17.4389C436.007 17.5213 436.683 17.8229 437.049 18.1126ZM478.282 36.7221C478.357 36.8749 478.36 37.188 478.289 37.3483C478.215 37.5141 477.971 37.5047 477.778 37.3192C477.608 37.1571 477.39 36.7682 477.427 36.6853C477.44 36.6577 477.544 36.5849 477.657 36.5293C477.894 36.4166 478.174 36.4949 478.282 36.7221ZM428.119 15.1195C428.312 15.3781 428.235 15.8736 427.969 16.0601C427.733 16.2327 427.422 15.9415 427.439 15.5449C427.451 15.2455 427.549 15.0506 427.719 14.9672C427.888 14.8838 427.969 14.9132 428.119 15.1195ZM431.546 17.3321C431.997 17.9249 431.686 19.0916 430.985 19.4281C430.7 19.5726 430.483 19.5886 430.188 19.4966C429.19 19.1901 429.202 17.7306 430.217 17.1364C430.696 16.8532 431.24 16.9305 431.546 17.3321ZM429.26 17.1201C429.341 17.3087 429.313 17.3957 429.122 17.5758C428.956 17.7268 428.748 17.7469 428.496 17.634C428.165 17.4863 428.193 17.2138 428.559 16.9993C428.892 16.7966 429.141 16.8419 429.26 17.1201ZM476.631 39.6305C476.613 39.7816 476.357 40.3302 476.311 40.3097C476.187 40.2543 476.051 40.0279 476.057 39.8913C476.069 39.6782 476.192 39.4149 476.281 39.4146C476.439 39.4057 476.642 39.5298 476.631 39.6305ZM475.028 38.9745C475.18 39.2015 475.123 39.3417 474.77 39.6017L474.46 39.8277L474.189 39.6805C473.724 39.4133 473.578 39.0366 473.838 38.7749C474.089 38.5222 474.806 38.6436 475.028 38.9745ZM469.053 36.804C470.145 37.444 470.971 38.1375 471.16 38.5664C471.644 39.6908 470.717 41.7427 469.451 42.3441C468.647 42.7272 468.074 42.4914 465.385 40.7009C463.238 39.2648 462.783 38.8762 462.438 38.2051C462.285 37.9181 462.28 37.6574 462.416 37.3534C462.626 36.8836 463.341 36.3547 464.319 35.9427C465.32 35.5147 465.756 35.451 466.395 35.6237C466.852 35.7482 468.472 36.4648 469.053 36.804ZM438.266 24.6082C438.641 24.9543 438.893 25.3389 439.161 25.9621C439.664 27.1547 439.779 27.8225 439.565 28.3034C439.227 29.0605 438.39 29.1444 435.79 28.6729C435.173 28.5628 434.24 28.405 433.717 28.3173C432.93 28.1913 432.649 28.1186 432.085 27.9C431.462 27.6548 431.389 27.6089 431.19 27.3876C430.919 27.081 430.798 26.7221 430.799 26.2256C430.803 25.4386 431.147 24.2993 431.541 23.7861C431.954 23.2549 432.669 22.9508 433.437 22.9954C433.871 23.0234 435.047 23.2638 435.945 23.5121C436.669 23.7163 437.948 24.3204 438.266 24.6082ZM428.235 20.242C428.291 20.439 428.135 20.6879 427.896 20.793C427.684 20.8841 427.548 20.8301 427.546 20.6632C427.549 20.3729 427.777 20.0706 427.996 20.0622C428.175 20.056 428.186 20.0677 428.235 20.242ZM430.437 21.1854C430.554 21.3305 430.556 21.3511 430.452 21.5102C430.392 21.5959 430.235 21.7248 430.101 21.7908C429.901 21.8936 429.821 21.8981 429.596 21.8238C429.149 21.6772 428.965 21.3103 429.135 20.9289C429.182 20.8239 429.224 20.7431 429.233 20.7472C429.238 20.7492 429.342 20.7495 429.463 20.7504C429.753 20.7542 430.273 20.986 430.437 21.1854ZM473.345 41.0665C473.534 41.2968 473.552 41.5768 473.396 41.8649C473.162 42.2907 472.743 42.475 472.209 42.3888C471.746 42.3147 471.306 41.8929 471.388 41.5981C471.499 41.1638 472.012 40.7433 472.459 40.7043C472.739 40.6833 473.178 40.8595 473.345 41.0665ZM474.581 42.5067C474.435 42.7334 473.894 43.0086 473.728 42.9347C473.494 42.8301 473.833 42.3916 474.389 42.0963L474.736 41.913L474.714 42.122C474.704 42.2434 474.651 42.3988 474.581 42.5067ZM430.123 23.8756C430.332 24.1611 430.372 24.5168 430.226 24.8429C430.034 25.274 429.671 25.3836 429.165 25.1579C428.637 24.922 428.372 24.3664 428.575 23.9132C428.863 23.2666 429.654 23.2484 430.123 23.8756ZM427.604 23.261C427.832 23.6878 427.863 24.0263 427.705 24.38C427.626 24.5569 427.617 24.5528 427.38 24.2943C427.26 24.1548 427.214 23.7763 427.272 23.4375C427.372 22.8923 427.4 22.8784 427.604 23.261ZM462.102 39.1684C462.318 39.3249 462.834 39.7009 463.239 40.0145C463.925 40.5395 464.093 40.634 465.462 41.3316C467.311 42.2764 467.644 42.5047 468.062 43.1356C468.563 43.9027 468.481 45.0727 467.862 46.0289C467.445 46.665 466.584 47.3476 465.95 47.5348C465.516 47.6661 465.245 47.6444 464.799 47.4454C464.379 47.2642 464.089 47.0356 463.21 46.1921C462.552 45.567 461.862 45.0268 461.148 44.5757C460.037 43.8806 459.557 43.7328 456.722 43.1959C453.771 42.634 453.568 42.5831 452.245 41.9922C451.23 41.5388 451.078 41.458 450.694 41.147C450.459 40.9562 450.144 40.6498 449.986 40.4731C449.763 40.2078 449.723 40.1369 449.794 40.089C449.928 40.0099 450.527 39.9656 451.37 39.9775C452.789 39.9949 453.095 39.9392 455.227 39.3001C458.166 38.4185 459.31 38.2135 460.353 38.3944C460.8 38.4679 461.613 38.831 462.102 39.1684ZM470.984 43.2804C471.34 43.8038 471.188 44.3058 470.669 44.3326C470.108 44.3541 469.707 43.7839 469.848 43.1709C469.895 42.9928 469.934 42.9305 470.063 42.8494C470.212 42.7502 470.238 42.7549 470.536 42.9145C470.731 43.0213 470.899 43.1627 470.984 43.2804ZM472.705 44.6718C472.626 44.8487 472.561 44.9193 472.394 44.9971C472.117 45.1382 471.919 45.0369 471.998 44.8C472.068 44.5928 472.213 44.4654 472.449 44.4183C472.762 44.3461 472.823 44.4065 472.705 44.6718ZM440.442 30.498C440.977 30.916 441.65 31.6673 442.52 32.8178C443.075 33.5495 443.36 34.0215 444.051 35.3507C445.064 37.3145 445.617 38.0386 446.582 38.6681C446.787 38.7997 446.785 38.8052 446.66 38.8754C446.434 38.9997 445.619 39.06 445.077 38.9904C444.785 38.9529 444.251 38.8273 443.874 38.6984C442.788 38.3397 441.861 37.8129 439.021 35.9415C438.312 35.4794 438.014 35.3198 437.043 34.8794C435.963 34.3973 435.859 34.3576 435.248 34.2572C434.614 34.1465 433.8 34.0944 432.2 34.0626C430.929 34.0322 430.442 33.841 429.973 33.1744C429.541 32.5637 429.385 31.4801 429.607 30.6116C429.747 30.0642 430.126 29.3386 430.436 29.0263C430.775 28.6871 431.279 28.4217 431.704 28.3594C432.355 28.259 432.949 28.385 434.515 28.9384C435.8 29.3929 436.151 29.4702 437.5 29.5954C437.922 29.6379 438.462 29.7 438.702 29.7412C439.253 29.8411 440.03 30.1748 440.442 30.498ZM430.161 27.0742C429.967 27.657 429.919 27.7283 429.706 27.7725C429.363 27.8511 429.03 27.782 428.793 27.5836C428.677 27.4854 428.556 27.3383 428.523 27.2508L428.458 27.089L428.634 26.929C429.019 26.5841 429.582 26.484 430.044 26.6836L430.258 26.7725L430.161 27.0742ZM427.371 26.3517C427.504 26.4974 427.52 26.7698 427.407 27.024C427.345 27.1622 427.314 27.1816 427.227 27.1426C427.172 27.118 427.093 27.0362 427.055 26.9598C426.993 26.8262 426.991 26.3614 427.051 26.2157C427.088 26.1328 427.215 26.1826 427.371 26.3517ZM470.437 46.7281C470.673 47.0258 470.583 47.562 470.243 47.8675C470.021 48.0669 469.727 48.1081 469.447 47.9829C468.634 47.6198 469.007 46.4742 469.937 46.4913C470.167 46.4946 470.293 46.5576 470.437 46.7281ZM427.851 29.7679C427.917 29.8435 427.993 30.0301 428.029 30.1852C428.081 30.4271 428.074 30.4905 427.965 30.6737C427.642 31.2253 426.868 31.2179 426.615 30.6609C426.391 30.1762 426.728 29.4584 427.184 29.4366C427.36 29.436 427.728 29.6132 427.851 29.7679ZM454.487 44.5976C456.472 45.4969 458.052 46.242 458.025 46.2635C457.94 46.3314 456.413 46.0606 455.268 45.7746C454.986 45.7019 454.395 45.471 453.651 45.1387C452.647 44.6839 452.415 44.5606 452.003 44.2504C451.424 43.8195 451.111 43.5076 450.799 43.0701C450.58 42.7599 450.575 42.7448 450.733 42.8483C450.827 42.91 452.515 43.6967 454.487 44.5976ZM462.344 48.192C463.863 49.1352 464.607 50.3952 464.378 51.6719C464.299 52.1336 464.157 52.428 463.954 52.5363C463.52 52.767 462.861 52.6646 461.809 52.1948C460.931 51.803 458.618 50.4917 458.206 50.1553C457.68 49.7284 457.497 49.249 457.48 48.287C457.466 47.505 457.395 46.8107 457.317 46.7027C457.274 46.6374 457.264 46.5864 457.297 46.5745C457.486 46.5331 459.515 46.9882 460.261 47.2419C460.754 47.409 461.981 47.9699 462.344 48.192ZM444.094 40.1293C443.919 40.5217 442.107 40.4348 440.671 39.9727C439.91 39.7259 438.569 39.1137 438.023 38.7572C437.241 38.2491 436.415 37.5818 436.454 37.4934C436.464 37.4713 436.961 37.6536 437.559 37.8941C441.241 39.3856 442.455 39.8017 443.5 39.9171C443.957 39.9684 444.136 40.0354 444.094 40.1293ZM450.873 43.6464C452.676 45.5452 452.733 45.5774 454.466 45.9667C455.376 46.1742 455.648 46.256 456.064 46.4613C456.52 46.6851 456.582 46.7324 456.788 47.0234C457.147 47.5282 457.333 48.3338 457.349 49.4213C457.352 49.6351 457.313 50.4525 457.269 51.2417C457.167 52.9263 457.167 53.2111 457.267 54.0115C457.362 54.7235 457.379 55.0559 457.333 55.1609C457.305 55.2217 457.172 55.1753 456.568 54.8728C455.157 54.1698 454.011 53.0479 452.561 50.9754C451.958 50.1032 450.963 48.5187 450.568 47.7857C449.524 45.8544 449.123 44.0117 449.542 43.0722C449.619 42.9008 449.709 42.7357 449.742 42.7107C449.847 42.6248 450.115 42.8507 450.873 43.6464ZM444.839 40.8065C444.855 40.8933 444.79 41.0032 444.513 41.3636C443.84 42.2428 443.171 42.766 442.032 43.3048C440.929 43.8263 439.727 44.1847 437.578 44.6301C434.559 45.2574 432.829 45.2937 431.23 44.7783C430.884 44.6638 430.585 44.5566 430.562 44.5333C430.539 44.5099 430.675 44.3915 430.868 44.279C431.293 44.0181 432.166 43.1878 432.882 42.3609C434.056 41.0027 434.654 40.3417 435.063 39.9678C436.552 38.5841 437.434 38.5208 439.084 39.6883C440.535 40.7208 440.741 40.7662 443.061 40.6553C444.08 40.6066 444.6 40.6136 444.74 40.6696C444.784 40.6826 444.827 40.7479 444.839 40.8065ZM435.439 37.4711C435.982 37.7994 436.324 38.0319 436.661 38.2885L436.773 38.3715L436.501 38.4884C436.315 38.5712 436.059 38.775 435.637 39.1766C434.827 39.9549 434.523 40.1774 434.144 40.2733C433.281 40.4911 431.479 40.071 429.497 39.1923C428.311 38.663 428.012 38.4697 427.839 38.1275L427.742 37.9383L427.956 37.4705C428.131 37.0781 428.204 36.9647 428.445 36.7342C429.289 35.9047 430.749 35.7081 432.526 36.1704C433.173 36.3396 434.707 37.0249 435.439 37.4711ZM449.348 46.273C449.968 47.8093 450.861 49.5736 451.886 51.2773L452.331 52.0198L452.223 52.7802C451.914 54.9422 451.83 56.6612 451.94 58.6256C452.051 60.6839 452.003 61.1131 451.522 62.1046C451.018 63.1459 450.776 63.2826 450.097 62.9266C449.505 62.6226 449.156 61.9232 448.892 60.5394C448.733 59.673 448.639 58.8223 448.484 56.7511C448.409 55.77 448.25 54.1278 448.13 53.0999C447.618 48.8148 447.592 47.2321 447.98 45.1389C448.151 44.2009 448.25 43.8936 448.401 43.7758C448.525 43.685 448.529 43.6871 448.769 44.5696C448.907 45.0622 449.166 45.8275 449.348 46.273ZM445.092 42.3511C445.09 42.6022 444.34 43.8513 443.671 44.7193C442.728 45.9423 441.914 46.7054 439.37 48.7379C438.537 49.4066 437.243 50.466 436.497 51.1006C433.917 53.276 432.383 54.4536 431.693 54.7755C431.061 55.0697 430.595 55.1135 430.126 54.9043C429.933 54.8181 429.738 54.7112 429.693 54.6645C429.582 54.5553 429.592 53.9897 429.712 53.5858C429.837 53.1446 430.18 52.5488 430.588 52.0548C430.761 51.8535 431.402 51.2055 432.019 50.6259C433.773 48.9695 434.773 47.865 435.78 46.4721C436.238 45.8414 436.288 45.7909 436.535 45.6824C436.683 45.6225 437.571 45.3363 438.51 45.0597C441.813 44.0685 443.302 43.4345 444.669 42.421C444.852 42.2837 445.024 42.1817 445.047 42.192C445.07 42.2022 445.089 42.2704 445.092 42.3511ZM466.737 52.314C467.019 52.7054 467.04 53.5364 466.776 54.1278L466.64 54.4317L466.508 54.3329C466.186 54.09 465.889 53.5594 465.748 52.9861C465.672 52.674 465.629 52.3762 465.654 52.3209C465.715 52.1827 466.001 52.012 466.206 51.9974C466.406 51.9808 466.562 52.0768 466.737 52.314ZM447.402 44.5824C447.399 44.8128 447.403 45.8024 447.417 46.7962C447.471 50.6382 447.26 52.3205 446.463 54.3905C446.355 54.6674 446.208 55.059 446.138 55.2531C446.061 55.4506 445.987 55.6033 445.969 55.5951C445.951 55.5869 445.928 55.378 445.93 55.127C445.929 54.8815 445.907 54.0298 445.877 53.234C445.743 49.4096 446.023 47.0422 446.827 45.2405C447.074 44.6878 447.358 44.1515 447.394 44.1679C447.404 44.172 447.408 44.3596 447.402 44.5824ZM445.185 44.5005C444.94 45.1732 444.834 45.3977 444.491 45.9935C443.741 47.3026 442.915 48.2658 440.709 50.4294C439.252 51.8536 438.732 52.3901 438.677 52.5117C438.658 52.5559 438.624 52.5809 438.601 52.5706C438.542 52.5439 438.864 51.6006 439.165 50.9263C439.65 49.8507 440.316 48.8288 441.231 47.7791C441.705 47.2352 442.013 46.9154 443.621 45.3002C444.146 44.7658 444.739 44.1422 444.938 43.9062C445.144 43.6668 445.345 43.4516 445.392 43.4197C445.557 43.3211 445.483 43.6855 445.185 44.5005ZM426.691 36.256C426.79 36.3666 426.718 36.5531 426.437 36.9115C426.153 37.2753 425.782 37.4409 425.073 37.5222L424.481 37.5893L424.581 37.3289C424.885 36.5367 425.65 35.8841 426.19 35.9593C426.361 35.9827 426.54 36.089 426.691 36.256ZM458.462 50.8661C458.8 51.1697 458.988 51.28 460.135 51.8453C462.471 53.0075 462.889 53.3666 463.347 54.5987C463.561 55.1579 463.662 55.8065 463.636 56.3846C463.612 56.9309 463.375 57.5739 463.076 57.9109C462.8 58.2189 462.445 58.3981 462.058 58.4244C461.784 58.4476 461.622 58.4151 461.182 58.2519C460.685 58.0696 460.603 58.0196 460.143 57.6289C458.138 55.9248 457.316 53.9871 457.548 51.5186C457.616 50.7473 457.781 50.4032 458.018 50.5023C458.05 50.5166 458.248 50.678 458.462 50.8661ZM465.431 54.8929C465.494 55.1464 465.448 55.497 465.31 55.8065C465.155 56.1547 465.032 56.2193 464.761 56.0982C464.582 56.0182 464.557 55.9873 464.577 55.8306C464.605 55.5712 464.947 54.9154 465.123 54.7816C465.301 54.6423 465.377 54.6696 465.431 54.8929ZM433.323 41.1261C432.898 41.9174 432.469 42.4087 431.73 42.9667C431.242 43.332 430.262 43.8358 429.657 44.0298C427.665 44.665 425.577 44.3819 424.884 43.39C424.208 42.4118 424.794 41.0234 426.248 40.1744C427.194 39.6225 427.849 39.4772 428.786 39.6109C429.087 39.6525 430.025 39.8593 430.877 40.074C431.725 40.2867 432.573 40.4731 432.758 40.4896C433.192 40.5176 433.271 40.5394 433.419 40.6388L433.542 40.7205L433.323 41.1261ZM466.625 55.9098C466.653 56.28 466.271 56.8387 466.05 56.7402C465.89 56.6684 465.908 56.3918 466.113 56.0324C466.345 55.6122 466.459 55.5042 466.544 55.6349C466.58 55.6906 466.614 55.8119 466.625 55.9098ZM425.296 38.9738C425.288 39.1159 425.23 39.3816 425.16 39.5626C425.055 39.8472 425.014 39.9018 424.868 39.9823C424.644 40.1011 424.414 39.9986 424.374 39.7553C424.317 39.3651 424.554 38.9207 424.942 38.7165C425.211 38.5713 425.307 38.6406 425.296 38.9738ZM464.642 56.847C464.743 57.0776 464.673 57.4441 464.499 57.6117C464.344 57.7613 464.08 57.8223 463.996 57.7253C463.944 57.669 463.97 57.5744 464.13 57.2151C464.416 56.574 464.506 56.5082 464.642 56.847ZM423.701 38.6592C423.766 38.9334 423.558 39.4839 423.347 39.5881C423.177 39.6715 423.098 39.6029 423.108 39.3821C423.127 39.0924 423.491 38.3999 423.601 38.4492C423.629 38.4615 423.675 38.5551 423.701 38.6592ZM465.988 57.7929C465.995 57.8757 465.971 57.9309 465.904 57.9808C465.802 58.0612 465.554 58.0498 465.473 57.9604C465.396 57.8731 465.508 57.6713 465.695 57.5492C465.841 57.4555 465.865 57.4527 465.92 57.5635C465.958 57.6268 465.988 57.7329 465.988 57.7929ZM453.404 53.3206C456.025 56.3866 457.291 59.0067 457.131 61.0432C457.113 61.3199 457.059 61.5015 456.896 61.8662C456.713 62.2883 456.663 62.3651 456.42 62.575C455.911 63.0238 455.212 63.1954 454.458 63.0576C453.396 62.8685 452.74 62.2641 452.444 61.2238C452.195 60.324 452.095 58.3637 452.183 55.9702C452.256 53.9284 452.407 52.763 452.62 52.6325C452.672 52.6027 452.731 52.5824 452.754 52.5927C452.776 52.603 453.07 52.9329 453.404 53.3206ZM424.415 40.8475C424.392 41.109 424.144 41.6279 424.01 41.6939C423.954 41.7217 423.897 41.6633 423.792 41.4906C423.648 41.247 423.639 41.0574 423.762 40.9535C423.902 40.8371 424.36 40.5774 424.397 40.5938C424.415 40.602 424.423 40.7185 424.415 40.8475ZM435.719 46.0537C435.556 46.4185 434.958 47.2781 434.529 47.7694C434.129 48.2205 432.204 50.1383 431.115 51.17C430.441 51.8036 429.834 52.2618 429.444 52.4323C428.368 52.8929 426.744 52.2343 426.121 51.0745C425.822 50.5232 425.836 49.9728 426.169 49.3391C426.995 47.7594 429.57 46.5957 433.609 45.9666C434.605 45.8083 435.579 45.726 435.719 45.782C435.806 45.821 435.808 45.8548 435.719 46.0537ZM463.639 58.4874C463.624 58.633 463.355 58.8906 463.168 58.9396C462.969 58.99 462.888 58.8875 462.922 58.6246C462.945 58.4756 462.969 58.4465 463.166 58.3623C463.411 58.2593 463.658 58.3232 463.639 58.4874ZM458.028 56.1342C459.21 56.98 460.005 57.8391 460.469 58.7622C460.768 59.3528 460.815 59.9375 460.608 60.4148C460.349 60.9952 459.662 61.5964 459.172 61.6693C458.488 61.7685 458.093 61.2472 457.325 59.2142C456.672 57.5042 456.177 56.4543 455.51 55.3809C455.32 55.0775 455.173 54.8132 455.183 54.7911C455.215 54.7193 455.494 54.8237 456.502 55.2937C457.278 55.6535 457.649 55.859 458.028 56.1342ZM422.961 40.4634C423.013 40.6191 422.926 40.8387 422.805 40.8378C422.694 40.841 422.473 40.7425 422.401 40.6573C422.324 40.57 422.415 40.3786 422.568 40.2945C422.715 40.214 422.905 40.2926 422.961 40.4634ZM464.901 59.2895C464.931 59.3956 464.76 59.8032 464.61 59.9679C464.365 60.2433 463.977 60.1627 463.997 59.8337C464.012 59.615 464.144 59.4552 464.472 59.2898C464.771 59.1383 464.859 59.138 464.901 59.2895ZM447.713 52.2442C447.731 52.6104 447.817 53.4908 447.901 54.2043C447.985 54.9178 448.122 56.0794 448.211 56.7949C448.554 59.7054 448.49 61.6389 448.004 62.7276C447.493 63.8717 446.554 63.7042 446.188 62.4007C445.705 60.6804 446.06 56.4776 446.95 53.3486C447.195 52.4904 447.561 51.5338 447.63 51.5645C447.653 51.5748 447.692 51.8836 447.713 52.2442ZM439.606 49.6915C438.891 51.0957 438.371 51.9508 437.501 53.1727C435.74 55.6347 433.968 57.236 432.784 57.4301C432.516 57.476 432.414 57.457 432.138 57.3339C431.771 57.1698 431.706 57.0811 431.733 56.7486C431.791 56.1249 432.688 54.8683 433.881 53.7506C434.224 53.4266 435.453 52.3777 436.61 51.4161C437.766 50.4544 438.968 49.4532 439.277 49.1934C439.584 48.9261 439.89 48.6849 439.951 48.646C440.062 48.5828 440.067 48.5849 440.054 48.7118C440.043 48.7864 439.845 49.2285 439.606 49.6915ZM432.573 45.756C432.533 45.7714 432.101 45.8633 431.599 45.9639C429.786 46.3211 429.537 46.409 427.682 47.3305C425.778 48.2764 425.572 48.3434 425.084 48.1259C424.937 48.0603 424.759 47.941 424.696 47.8598C424.518 47.6412 424.377 47.1672 424.38 46.7906C424.383 46.5003 424.411 46.3871 424.604 45.956C424.784 45.5525 424.862 45.4281 425.026 45.2826C425.996 44.4168 427.803 44.2824 430.255 44.9C431.151 45.1276 432.702 45.7011 432.573 45.756ZM424.157 42.7472C424.308 43.1129 424.166 43.4072 423.885 43.2821C423.642 43.1733 423.546 42.4875 423.774 42.4831C423.932 42.4743 424.092 42.5854 424.157 42.7472ZM422.554 42.4623C422.676 42.7949 422.641 43.1571 422.47 43.293C422.437 43.3179 422.295 43.3143 422.159 43.2734L421.907 43.2075L421.963 42.9342C422.074 42.4268 422.251 42.1544 422.416 42.2283C422.448 42.2427 422.506 42.348 422.554 42.4623ZM462.334 60.6221C462.159 61.0145 462.047 61.117 461.872 61.039C461.744 60.9816 461.739 60.9664 461.833 60.7564C461.993 60.3972 462.197 60.2495 462.437 60.3038C462.456 60.312 462.41 60.4508 462.334 60.6221ZM463.707 61.361C463.736 61.5064 463.751 61.6457 463.738 61.6733C463.728 61.6954 463.715 61.7624 463.709 61.8128C463.689 61.9563 463.426 62.0642 463.27 61.9944C463.095 61.9165 463.068 61.6924 463.194 61.4106C463.397 60.9574 463.616 60.9359 463.707 61.361ZM423.424 44.7728C423.507 44.8698 423.486 45.3374 423.391 45.5006C423.281 45.6968 423.106 45.6451 423.036 45.395C422.981 45.1849 423.102 44.8147 423.257 44.7383C423.356 44.6896 423.347 44.6855 423.424 44.7728ZM422.009 44.4727C422.122 44.6026 422.083 44.7772 421.875 45.0691L421.68 45.3464L421.432 45.2356L421.184 45.1248L421.322 44.8884C421.623 44.3866 421.822 44.263 422.009 44.4727ZM460.948 62.7143C460.841 62.9913 460.579 63.2192 460.363 63.2221C460.01 63.2234 460.198 62.7903 460.672 62.5181C460.967 62.3515 461.058 62.4187 460.948 62.7143ZM461.937 63.4009C462.002 63.9076 461.304 65.0144 461.079 64.7546C460.991 64.6556 461.001 64.3487 461.095 64.1386C461.174 63.9618 461.665 63.2068 461.741 63.1479C461.819 63.0834 461.909 63.2031 461.937 63.4009ZM422.979 47.3981C423.084 47.8294 423.027 48.142 422.834 48.1683C422.575 48.2051 422.486 47.8606 422.64 47.3793C422.729 47.1073 422.746 47.0817 422.828 47.1186C422.874 47.1391 422.943 47.2692 422.979 47.3981ZM458.629 63.6142C458.589 63.7026 458.549 63.8304 458.533 63.9028C458.514 63.994 458.481 64.032 458.407 64.0254C458.267 64.0163 457.911 63.8769 457.898 63.8184C457.868 63.7254 458.544 63.3973 458.659 63.4486C458.682 63.4588 458.666 63.5313 458.629 63.6142ZM421.687 47.1457C421.799 47.315 421.741 47.74 421.544 48.1691C421.315 48.6699 421.205 48.8062 421.075 48.775C420.89 48.7322 420.893 48.3688 421.087 47.8722C421.236 47.4881 421.53 47.0029 421.594 47.0316C421.608 47.0377 421.646 47.0879 421.687 47.1457ZM459.745 65.1266C459.818 65.358 459.731 65.4783 459.38 65.6335C458.798 65.8902 458.159 65.605 458.439 65.2129C458.595 64.9978 458.827 64.8231 459.057 64.7664C459.335 64.6853 459.661 64.8572 459.745 65.1266ZM423.975 49.8578C424.087 50.1132 424.047 50.2148 423.814 50.2433C423.672 50.2659 423.628 50.2529 423.598 50.173C423.541 50.0284 423.553 49.7291 423.625 49.5688C423.684 49.4361 423.696 49.4347 423.786 49.5413C423.845 49.6073 423.929 49.7511 423.975 49.8578ZM456.791 64.4109C456.829 64.5473 456.821 64.577 456.715 64.6553C456.47 64.8445 456.277 64.8577 455.897 64.7212L455.531 64.5908L455.635 64.4449C455.777 64.2499 455.942 64.1644 456.217 64.1413C456.527 64.1139 456.735 64.2138 456.791 64.4109ZM422.491 50.1097C422.611 50.2961 422.715 50.7068 422.688 50.9269C422.653 51.1898 422.517 51.2482 422.228 51.119C421.782 50.92 421.467 50.3418 421.659 50.0832C421.878 49.803 422.292 49.8152 422.491 50.1097ZM454.315 64.452C454.45 64.6184 454.464 64.797 454.36 65.0291C454.257 65.2612 453.961 65.3679 453.654 65.2904C453.181 65.1653 453.051 64.7761 453.348 64.3715C453.425 64.2733 453.524 64.2246 453.693 64.2143C453.98 64.1898 454.15 64.2526 454.315 64.452ZM457.194 65.817C457.24 65.9106 457.233 66.0003 457.171 66.1384C457.006 66.5087 456.545 66.6146 456.045 66.391C455.861 66.3089 455.836 66.278 455.891 66.2164C455.927 66.1728 455.978 66.0961 456.003 66.0408C456.072 65.8861 456.496 65.6644 456.759 65.6427C457.041 65.6162 457.11 65.6469 457.194 65.817ZM425.102 51.7529C425.223 51.9131 425.232 52.2283 425.117 52.3494C425.023 52.4601 424.535 52.222 424.373 51.9908C424.252 51.8175 424.224 51.5597 424.3 51.3883C424.352 51.2723 424.947 51.5445 425.102 51.7529ZM452.352 64.4174C452.411 64.5696 452.327 64.6713 452.035 64.8062C451.715 64.955 451.279 64.9456 450.762 64.7945C450.448 64.6943 450.435 64.6881 450.486 64.5721C450.602 64.3123 451.049 64.0409 451.384 64.0314C451.77 64.0182 452.276 64.2177 452.352 64.4174ZM426.779 53.39C427.061 53.6483 426.973 54.0797 426.602 54.2452C426.42 54.33 426.351 54.3255 426.139 54.2311C425.423 53.9111 425.525 53.1879 426.285 53.2022C426.542 53.2047 426.595 53.2218 426.779 53.39ZM449.626 63.9822C449.772 64.1734 449.863 64.5255 449.788 64.6182C449.764 64.6472 449.612 64.6919 449.451 64.7194C448.776 64.8358 448.369 64.5015 448.584 64.0207C448.68 63.8051 448.822 63.6963 449.024 63.6872C449.273 63.6725 449.455 63.7601 449.626 63.9822ZM423.794 52.6207C423.879 52.8507 423.867 53.1369 423.76 53.3146C423.697 53.419 423.662 53.4233 423.466 53.3557C423.215 53.2636 423.044 53.0808 422.928 52.7708C422.829 52.5009 422.879 52.3641 423.106 52.2867C423.362 52.1954 423.697 52.3583 423.794 52.6207ZM454.54 66.3291C454.502 66.4645 454.017 66.7249 453.812 66.7133C453.717 66.704 453.555 66.6846 453.453 66.6657C453.269 66.6229 453.266 66.6154 453.335 66.4606C453.407 66.3003 453.6 66.1279 453.787 66.0658C454.064 65.964 454.589 66.1455 454.54 66.3291ZM428.594 54.9425C428.749 55.1509 428.872 55.5904 428.813 55.7231C428.796 55.7618 428.777 55.8398 428.769 55.8957C428.757 55.9833 428.711 55.9759 428.421 55.8466C428.217 55.7488 428.005 55.6075 427.885 55.4811C427.661 55.2419 427.384 54.7271 427.428 54.6276C427.473 54.5281 427.751 54.4733 427.963 54.5152C428.211 54.566 428.416 54.7107 428.594 54.9425ZM430.59 56.3708C430.595 56.4591 430.564 56.6509 430.516 56.7953C430.4 57.1674 430.226 57.2488 429.897 57.0955C429.617 56.9704 429.337 56.6728 429.325 56.5018C429.316 56.3122 429.559 56.1492 429.914 56.0954C430.313 56.0415 430.568 56.1488 430.59 56.3708ZM451.908 66.0288C451.952 66.141 451.949 66.1597 451.823 66.2691C451.578 66.4845 451.368 66.5102 451.06 66.3727C450.702 66.2127 450.634 66.0564 450.843 65.8714C450.922 65.807 451.072 65.7416 451.182 65.7308C451.433 65.6975 451.831 65.8684 451.908 66.0288ZM425.302 54.6129C425.46 54.8027 425.515 55.0859 425.443 55.2855C425.388 55.4333 425.362 55.4417 425.231 55.4029C425.085 55.3579 424.81 55.0493 424.738 54.8516C424.682 54.707 424.633 54.3472 424.658 54.2919C424.692 54.2145 425.174 54.4562 425.302 54.6129ZM448.141 64.95C448.237 65.0923 448.276 65.4143 448.198 65.4525C448.181 65.465 447.973 65.3389 447.74 65.1818C447.308 64.8897 447.133 64.6786 447.199 64.5294C447.254 64.4078 447.982 64.7395 448.141 64.95ZM449.629 65.7533C449.798 65.9547 449.777 66.0383 449.506 66.1889C449.36 66.2695 449.241 66.2893 449.097 66.2519L448.892 66.1933L448.936 65.8352C448.958 65.6393 448.999 65.4591 449.026 65.4376C449.109 65.3753 449.468 65.5691 449.629 65.7533ZM427.628 56.3276C427.676 56.3819 427.66 56.4544 427.549 56.6769C427.415 56.9415 427.405 56.9505 427.255 56.9035C426.776 56.7557 426.456 56.0162 426.834 55.9334C426.94 55.9074 427.509 56.188 427.628 56.3276ZM431.248 58.1429C431.154 58.2929 430.883 58.3312 430.492 58.2561C430.282 58.2217 430.057 58.1812 430 58.1752C429.918 58.1721 429.891 58.1335 429.898 58.057C429.94 57.7044 430.343 57.6656 431.033 57.9471C431.26 58.0421 431.294 58.0772 431.248 58.1429ZM429.17 57.639C429.069 57.8656 428.857 58.0561 428.687 58.0664C428.491 58.0851 428.275 57.7431 428.35 57.5249C428.406 57.3509 428.553 57.3041 428.854 57.3588C429.219 57.4292 429.251 57.4566 429.17 57.639Z" fill="black"/>
</svg>
