<svg width="600" height="600" viewBox="0 0 600 600" fill="none" xmlns="http://www.w3.org/2000/svg">
<path d="M175.472 48.1505C175.472 48.1505 173.039 49.5485 170.686 51.17C169.218 52.3494 168.066 54.0886 166.874 55.5607C161.547 64.1222 157.604 77.6643 156.157 95.9562C155.513 109.014 155.909 119.494 159.439 138.267C161.39 148.64 160.977 148.751 160.502 150.6C160.147 151.647 158.142 155.769 157.059 159.412C156.896 160.38 156.794 161.411 156.77 162.527C156.228 166.389 156.225 173.871 155.796 179.479C155.67 181.639 154.09 189.334 152.846 193.253C151.267 198.227 150.168 204.925 150.168 204.925C150.168 204.925 149.987 206.213 149.981 207.91C149.974 209.608 150.742 211.829 151.657 213.554C148.833 219.704 146.334 227.864 146.37 231.28C146.167 232.899 145.855 237.875 146.312 240.61C146.335 242.15 146.809 248.123 150.236 253.93C149.121 255.01 148.683 254.833 146.483 256.495C144.224 258.303 144.252 258.654 142.577 260.699C141.076 263.153 139.839 265.374 139.55 265.938C137.931 268.685 132.323 280.194 131.441 281.538C130.028 283.688 129.14 286.391 124.761 290.379C124.491 293.695 124.814 293.316 123.641 297.774C123.577 298.019 122.429 300.915 122.056 303.085C120.937 305.014 120.864 308.556 121.584 311.397C118.737 314.158 117.409 317.023 116.256 320.298C115.429 322.345 115.038 325.078 114.885 326.717C114.76 328.707 114.547 331.63 115.268 333.334C115.609 335.853 117.733 338.581 117.379 339.459C116.024 344.057 115.774 345.953 116.08 349.818C116.042 352.013 116.795 356.399 117.798 359.015C118.956 362.033 120.906 364.352 122.23 366.077C124.073 369.543 125.526 375.231 126.6 377.196C127.497 379.599 130.4 380.406 131.453 381.538C132.506 382.669 134.744 387.476 135.604 389.337C136.222 391.168 139.072 392.099 143.083 393.94C143.508 394.571 146.75 399.574 148.857 402.344C152.406 407.009 153.922 408.302 160.091 408.584C164.064 409.678 170.856 415.144 174.536 416.121C178.677 417.22 180.681 415.202 185.157 414.63C190.1 414.586 192.333 415.783 195.685 414.632C201.6 412.6 204.363 409.124 207.323 407.26C209.965 404.926 211.75 403.742 214.013 401.63C217.297 399.385 232.04 384.935 232.04 384.935C232.04 384.935 245.335 371.6 249.713 366.226C258.112 357.205 269.695 341.988 272.072 339.887C270.981 342.167 267.819 350.413 263.062 362.606C258.535 374.211 257.406 380.388 257.097 384.515C256.973 386.505 257.195 389.316 257.627 391.191C258.975 390.375 257.773 391.25 259.972 389.588C259.972 389.588 260.897 388.771 261.88 387.808C265.814 383.955 268.549 380.128 273.799 368.815C279.573 356.372 284.032 347.27 284.595 345.457C284.181 346.48 281.237 373.521 281.391 379.025C281.263 381.864 280.739 395.767 280.723 400.012C280.714 402.219 280.566 408.23 280.421 409.584C280.077 413.178 280.443 418.776 280.75 422.641C280.715 423.987 280.911 433.151 281.659 436.783C282.48 440.626 283.169 446.901 286.279 451.404C288.71 454.923 293.58 456.617 294.813 460.124C296.992 463.555 296.381 462.968 298.098 465.022C299.759 466.374 305.105 467.853 308.553 468.566C310.947 469.363 311.681 468.809 318.949 472.256C322.275 474.11 324.934 474.674 327.919 474.01C331.25 473.741 333.296 472.469 339.096 472.403C341.143 472.38 341.404 472.996 345.218 473.643C348.918 473.311 351.438 472.118 353.969 471.736C357.907 471.291 359.464 472.426 361.748 471.818C363.327 471.398 364.875 470.501 366.224 469.715C367.604 468.912 371.482 466.355 373.32 466.29C375.163 466.354 375.51 467.175 378.537 466.187C380.254 465.52 383.038 464.094 385.307 462.46C388.56 460.713 391.528 456.993 393.592 452.883C395.48 449.207 397.755 450.143 399.75 448.569C401.209 447.947 405.034 444.829 406.029 443.113C407.381 441.448 408.646 439.579 409.945 436.532C411.713 432.995 412.325 429.775 412.527 427.032C412.996 426.711 412.791 426.798 415.721 425.431C416.725 422.946 418.167 420.637 420.026 416.457C421.881 413.125 420.971 414.117 423.41 411.022C425.964 408.482 426.245 404.004 426.509 396.628C427.019 393.263 427.669 391.655 428.555 389.462C429.059 387.795 429.49 386.949 430.143 384.492C431.029 382.299 431.678 380.691 432.953 376.274C433.974 372.737 433.617 373.991 433.686 371.298C433.54 368.518 432.879 368.251 432.448 366.376C434.116 366.03 437.397 364.635 437.397 364.635L441.675 362.452C441.675 362.452 449.095 357.117 452.306 351.271C457.455 343.148 457.639 341.012 460.172 336.423C461.518 335.592 464.798 335.061 467.108 331.913C469.339 329.754 470.268 327.408 472.241 323.784C473.911 320.717 476.646 314.936 479.191 311.626C481.701 308.403 485.164 304.095 486.242 303.421C487.578 302.475 492.628 297.032 495.496 292.705C498.08 288.806 498.525 286.047 499.273 284.198C501.268 282.623 505.052 279.56 511.269 275.1C530.232 257.806 527.504 259.935 542.525 246.914C547.09 239.618 552.27 232.062 556.448 224.863C559.201 217.299 562.914 211.677 562.098 207.715C560.926 201.894 563.397 204.499 555.076 201.137C548.361 198.424 530.4 192.42 515.489 191.945C499.908 190.582 461.231 195.746 443.096 202.385C424.577 206.606 391.22 223.28 365.704 237.589C352.79 244.881 331.38 259.922 321.958 266.85C321.958 266.85 319.896 268.59 317.815 269.959C315.733 271.329 313.272 272.375 313.272 272.375L312.748 271.993C313.342 269.683 315.74 269.631 319.378 266.51C322.702 263.658 321.303 260.485 320.872 258.61C319.971 257.056 319.884 256.851 319.683 256.089C320.781 252.111 341.92 230.891 341.92 230.891C341.92 230.891 358.842 213.807 376.307 202.1C393.294 189.895 399.314 190.967 404.114 190.015C408.05 189.991 412.549 184.941 410.125 183.962C390.173 187.954 377.672 197.039 369.286 202.665C353.45 215.802 341.07 227.033 319.507 250.001L318.127 251.314L316.711 252.544C316.711 252.544 315.699 252.351 315.082 252.124C314.51 251.914 313.623 251.535 313.623 251.535L312.747 251.181C312.747 251.181 312.983 247.393 312.997 247.2C313.33 244.274 314.42 225.751 314.49 223.55C315.202 201.05 312.983 183.148 309.416 168.442C306.305 153.464 299.249 139.846 295.44 138.307C294.43 137.898 293.52 139.693 293.679 141.825C293.848 144.074 294.36 145.362 295.793 147.101C296.754 148.282 297.538 149.507 299.14 151.004C301.482 153.193 304.956 159.306 304.956 159.306C304.956 159.306 306.329 159.691 310.221 181.16C310.951 187.143 312.176 205.907 311.991 221.329C311.816 235.996 309.606 249.929 308.939 251.578C308.694 252.185 306.037 253.297 306.037 253.297C306.037 253.297 304.054 254.214 302.789 255.874C301.892 257.051 302.713 259.562 302.973 260.881C303.398 263.07 303.454 265.156 303.454 265.156C303.454 265.156 303.94 266.895 303.405 268.219C302.401 270.704 301.795 266.548 301.176 262.387C300.699 259.18 300.032 255.972 300.032 255.972C297.976 243.408 295.519 229.178 291.347 214.2C283.285 180.162 266.917 141.238 252.477 117.717C246.001 106.428 241.981 100.453 234.217 91.4633C218.343 73.0869 209.268 66.0699 189.59 55.2365C184.136 52.2343 175.472 48.1505 175.472 48.1505Z" fill="#2EAA3A" fill-opacity="0.6"/>
<path d="M551.993 199.762C522.117 188.877 489.035 189.012 450.102 200.213C430.45 205.862 405.706 215.814 387.287 225.477C361.248 239.147 336.353 254.907 322.058 266.762C317.158 270.8 313.319 273.032 313.009 271.929C312.798 271.177 314.311 269.748 316.807 268.32C321.784 265.5 322.821 262.85 320.79 258.173L319.802 255.978L320.781 254.355C324.639 247.835 344.454 227.615 358.295 216.04C364.879 210.518 375.04 202.779 380.044 199.489C385.001 196.222 391.216 193.078 394.451 192.199C395.813 191.843 398.915 191.343 401.366 191.078C406.329 190.576 408.272 189.734 409.667 187.507C410.822 185.655 410.958 184.532 410.107 184.152C409.226 183.759 403.601 184.93 398.765 186.454C393.991 188.004 385.069 192.395 379.288 196.039C363.552 205.979 344.276 223.196 322.895 246.355C319.431 250.113 317.176 252.307 316.823 252.281C316.501 252.268 315.51 251.957 314.565 251.623L312.845 250.986L313.504 242.732C315.248 221.107 314.885 200.12 312.547 183.556C309.774 164.211 304.301 147.65 298.314 140.812C295.24 137.247 293.819 137.49 293.667 141.587C293.572 144.087 295.007 146.832 297.957 149.859C299.215 151.122 300.544 152.636 300.944 153.21C304.41 158.265 308.099 171.311 309.911 185.053C312.412 204.189 312.378 229.252 309.748 247.718L309.214 251.689L306.27 253.224C304.665 254.042 303.054 255.12 302.688 255.614C301.731 256.941 301.712 258.861 302.688 262.717C303.594 266.322 303.621 267.649 302.771 268.409C302.363 268.753 302.189 268.325 301.916 266.406C294.588 215.214 279.689 167.92 258.082 127.407C245.797 104.385 232.329 86.7093 217.036 73.6114C206.298 64.4329 197.334 58.6325 183.351 51.9069L175.517 48.1458L173.411 49.3536C169.541 51.5716 167.21 54.3449 164.293 60.1448C155.943 76.8907 153.369 108.623 158.338 132.763C161.647 148.621 161.624 148.347 159.258 153.648C158.36 155.658 157.386 158.248 157.095 159.39C156.804 160.532 156.429 165.537 156.268 170.551C155.936 181.012 155.523 183.897 153.174 192.099C149.738 204.287 149.286 208.075 150.853 211.668L151.649 213.559L149.613 218.612C148.084 222.445 147.429 224.564 146.928 227.321C145.211 236.638 146.308 247.08 149.637 252.688C149.99 253.284 150.22 253.913 150.155 254.059C150.089 254.205 149.291 254.769 148.387 255.242C144.69 257.318 142.48 260.146 138.383 268.181C129.9 284.736 129.513 285.44 126.276 288.773L124.759 290.375L124.653 292.652C124.601 294.076 124.129 296.276 123.444 298.382C121.141 305.42 120.781 307.451 121.407 309.967L121.713 311.243L120.209 312.896C119.148 314.132 118.345 315.439 117.301 317.779C115.62 321.544 115.055 323.791 114.825 327.897C114.626 331.447 115.211 334.382 116.618 337.027C117.601 338.826 117.611 339.049 116.977 340.958C115.587 345.379 115.706 352.053 117.331 357.557C118.208 360.491 118.751 361.479 122.125 365.923C122.689 366.701 123.905 369.612 124.801 372.423C126.123 376.564 126.661 377.726 127.726 378.771C128.446 379.443 129.426 380.188 129.882 380.391C131.31 381.029 132.812 382.971 134.103 385.959C136.235 390.9 136.101 390.709 139.746 392.424L143.072 393.953L146.91 399.481C151.963 406.779 153.499 407.991 157.935 408.262C160.605 408.402 163.083 409.465 166.921 412.055C168.462 413.094 171.038 414.507 172.618 415.213C175.915 416.728 177.174 416.765 181.512 415.457C184.843 414.445 186.721 414.32 189.767 414.846C192.964 415.441 195.001 415.123 198.147 413.546C202.771 411.271 213.151 402.797 225.296 391.428C238.576 378.988 250.253 366.139 268.395 344.032C270.49 341.461 272.136 339.653 272.036 339.959C271.966 340.278 270.092 344.966 267.892 350.384C258.796 372.803 256.159 382.63 257.435 389.732L257.675 391.155L258.691 390.512C261.502 388.786 265.656 383.89 268.663 378.787C269.484 377.356 273.382 369.276 277.306 360.813C281.183 352.373 284.465 345.509 284.587 345.563C284.678 345.604 284.484 347.753 284.111 350.304C282.151 364.248 281.243 376.732 280.706 396.879C279.856 427.934 281.318 442.704 286.011 450.806C287.116 452.658 287.775 453.304 291.592 456.104C292.784 456.943 293.781 458.221 295.09 460.515C296.136 462.254 297.288 464.083 297.66 464.556C298.794 465.852 302.219 467.162 307.599 468.337C311.696 469.202 313.524 469.842 318.204 471.932C324.586 474.782 324.327 474.71 330.476 473.51C336.564 472.282 339.089 472.095 341.639 472.751C342.953 473.074 344.495 473.456 345.091 473.591C345.687 473.725 347.788 473.348 349.848 472.733C354.557 471.329 355.452 471.202 358.375 471.675C361.544 472.169 362.768 471.795 367.315 468.958C371.595 466.31 372.852 465.863 374.853 466.361C377.022 466.892 379.472 466.057 383.705 463.431C388.642 460.374 390.315 458.666 392.813 454.214C395.069 450.223 395.463 449.829 397.318 449.43C400.194 448.785 403.754 446.034 406.902 442.003C409.175 439.116 411.888 432.874 412.347 429.397L412.723 426.759L414.281 425.963L415.838 425.168L418.827 418.962C421.327 413.853 422.101 412.445 423.478 410.911C425.522 408.536 425.741 407.801 426.22 401.175C426.665 394.71 426.937 393.691 430.243 384.733C434.025 374.628 434.605 371.205 433.235 367.743C432.961 367.051 432.794 366.362 432.859 366.216C432.908 366.107 433.56 365.871 434.287 365.714C436.48 365.29 441.324 362.849 443.834 360.901C449.134 356.867 453.452 350.947 457.854 341.821L460.566 336.236L462.773 335.293C466.72 333.635 468.342 331.554 474.011 320.976C479.326 311.03 481.174 308.523 488.37 301.302C494.668 294.95 496.742 292.019 498.583 286.834L499.561 284.07L503.404 281.095C518.522 269.519 527.711 261.917 534.24 255.537C545.736 244.317 554.142 232.507 558.71 221.131C561.584 214.04 562.397 209.931 561.85 205.522L561.594 203.566L558.903 202.409C557.428 201.794 554.307 200.62 551.993 199.762ZM536.619 198.114C537.838 199.711 537.754 200.55 536.367 201.29C534.513 202.26 531.536 202.07 527.973 200.743C524.822 199.555 524.778 199.491 525.12 198.723C526.883 194.775 533.794 194.398 536.619 198.114ZM557.593 209.671C557.995 210.158 558.091 210.596 557.835 211.007C557.531 211.442 556.978 211.457 555.225 210.894C553.958 210.547 552.681 209.978 552.349 209.742C551.793 209.274 551.811 209.151 552.404 208.802C553.92 207.856 556.353 208.285 557.593 209.671ZM543.341 209.183C544.2 210.443 544.387 212.719 543.75 214.144C543.032 215.753 540.561 216.798 538.652 216.34C535.062 215.482 532.536 211.505 534.088 209.172C536.535 205.486 540.87 205.493 543.341 209.183ZM202.406 65.1502C203.427 66.7019 203.878 69.4463 203.318 70.2924C202.534 71.4768 193.54 66.2331 192.491 64.0109C191.982 62.8633 193.35 61.6766 195.399 61.4955C197.68 61.2861 201.107 63.0795 202.406 65.1502ZM523.871 207.811C526.728 209.656 528.883 212.504 529 214.529C529.208 218.962 525.299 221.513 519.853 220.485C514.653 219.478 506.761 213.806 504.551 209.531C503.221 206.876 505.356 204.542 509.58 204.06C514.267 203.523 519.367 204.835 523.871 207.811ZM551.671 222.855C552.583 225.059 550.88 226.096 547.751 225.269C545.689 224.743 544.85 223.93 545.307 222.906C546.432 220.384 550.645 220.336 551.671 222.855ZM175.346 57.1012C177.021 58.9013 175.886 59.4028 173.03 58.1272C172.27 57.788 171.468 57.2984 171.243 57.0666C170.855 56.6301 171.146 55.4886 171.737 55.2263C172.22 54.9599 174.434 56.1239 175.346 57.1012ZM501.928 203.976C502.232 204.681 502.273 205.489 502.007 206.247C501.425 207.96 500.205 208.161 497.653 207.021C495.86 206.22 495.605 205.975 495.506 205.054C495.408 203.476 495.946 201.699 496.644 201.441C498.181 200.856 501.171 202.322 501.928 203.976ZM487.813 198.199C487.65 198.565 487.05 199.174 486.487 199.536C485.222 200.33 481.15 200.879 479.362 200.476L478.078 200.166L479.178 199.254C481.991 196.871 488.776 196.042 487.813 198.199ZM187.904 66.0401C189.889 67.7158 189.965 70.7309 188.084 72.7406C186.898 74.0087 185.165 74.4624 182.977 74.0555C181.416 73.7969 181.007 73.5704 180.036 72.4792C178.588 70.8243 178.47 69.4562 179.58 67.5406C180.592 65.8444 182.495 64.7651 184.554 64.8075C186.229 64.8102 186.564 64.9595 187.904 66.0401ZM490.416 204.535C491.017 205.066 490.968 205.176 489.574 207.973C487.37 212.338 484.389 214.689 480.442 215.119C478.763 215.29 474.729 214.366 473.613 213.517C472.979 213.058 472.998 212.935 473.929 211.422C478.438 204.097 486.255 200.792 490.416 204.535ZM538.144 226.46C539.234 227.692 539.563 229.241 538.992 230.521C537.768 233.263 533.921 234.614 531.003 233.311C529.149 232.483 526.867 230.412 526.169 228.873C525.002 226.423 527.855 223.707 531.512 223.761C533.356 223.795 537.189 225.332 538.144 226.46ZM210.382 83.6178C213.055 86.039 213.471 87.8028 211.765 89.5838C209.725 91.7858 204.791 92.9586 200.087 92.3926C198.432 92.1799 196.955 91.6518 194.238 90.3073C190.9 88.6412 190.507 88.3782 189.159 86.4172C187.556 84.2108 187.026 82.1327 187.554 80.1326C188.343 76.9775 193.121 76.4803 200.701 78.7689C203.613 79.6747 208.955 82.3231 210.382 83.6178ZM473.674 200.479C473.625 200.589 472.899 201.317 472.08 202.091C469.008 204.972 464.039 206.305 460.456 205.187L458.656 204.646L459.464 203.735C461.569 201.387 464.03 200.119 467.392 199.691C469.799 199.362 473.935 199.894 473.674 200.479ZM233.407 96.7046C235.171 98.632 236.003 100.933 235.415 102.249C235.122 102.907 234.967 102.925 234.214 102.326C231.338 100.033 229.774 96.9237 230.557 95.169C230.965 94.2551 231.405 94.4952 233.407 96.7046ZM221.342 91.3174C222.896 93.6334 219.515 95.9819 216.537 94.652C214.774 93.865 214.001 92.2485 214.67 90.7497C215.388 89.1412 217.028 88.7336 219.064 89.6427C219.976 90.0498 220.986 90.8078 221.342 91.3174ZM514.932 222.365C518.054 224.679 519.811 226.867 520.5 229.323C520.897 230.64 520.961 231.721 520.721 232.096C520.224 232.882 516.484 233.667 513.967 233.508C510.852 233.301 504.278 230.146 501.048 227.257C497.262 223.901 494.958 220.242 494.963 217.701L495.011 216.451L496.917 216.425C499.609 216.356 501.034 216.51 503.129 216.963C505.94 217.604 512.624 220.676 514.932 222.365ZM171.273 71.9423C171.169 75.3595 170.047 75.3409 166.308 71.9612C165.557 71.2752 164.991 70.584 165.056 70.4377C165.268 69.9625 167.646 68.9636 168.646 68.9278C169.169 68.8985 169.978 69.1281 170.448 69.3817C171.175 69.7941 171.318 70.2087 171.273 71.9423ZM229.315 100.972C230.86 103.064 231.829 106.61 231.675 109.566C231.517 112.126 230.226 116.241 229.53 116.412C228.881 116.561 225.198 113.952 223.401 112.097C221.483 110.189 220.363 107.146 220.681 104.964C220.809 104.188 221.419 102.575 222.035 101.36C222.972 99.5862 223.353 99.1423 224.378 98.7232C225.978 98.0785 227.755 98.9157 229.315 100.972ZM537.593 240.024C538.22 241.312 537.15 243.465 535.401 244.525C532.965 245.981 530.455 245.561 529.294 243.509C528.426 242.025 528.723 240.623 530.168 239.427C532.431 237.544 536.558 237.852 537.593 240.024ZM241.897 108.387C245.398 111.485 247.541 115.993 246.997 119.17L246.818 120.142L244.927 118.991C242.399 117.467 240.593 115.39 239.717 113.025C239.086 111.253 238.571 107.428 238.881 106.733C239.076 106.295 240.259 106.911 241.897 108.387ZM490.181 220.739C490.335 221.29 488.8 223.016 487.254 223.948C483.662 226.115 477.64 225.398 474.459 222.4C473.694 221.664 472.873 220.727 472.7 220.299C472.365 219.58 472.444 219.483 474.191 218.51C477.045 216.934 480.432 216.693 484.263 217.746C486.369 218.336 490.026 220.188 490.181 220.739ZM181.347 84.1569C182.419 85.5122 183.184 88.6158 182.711 89.676C182.515 90.1146 181.705 90.5419 180.467 90.866C174.729 92.2061 169.623 89.3562 170.193 85.139C170.4 83.6967 170.593 83.3447 171.511 82.3513C173.803 79.9112 178.652 80.8051 181.347 84.1569ZM209.325 100.683C210.564 101.499 211.649 102.334 211.706 102.535C211.931 103.337 210.416 104.853 208.424 105.804C204.362 107.717 198.619 107.52 192.513 105.276C189.301 104.061 184.118 101.221 182.373 99.7404C181.592 99.0409 182.086 97.7708 183.837 96.0535C186.741 93.1412 190.476 92.5295 195.845 94.1376C198.528 94.985 206.18 98.6646 209.325 100.683ZM455.206 210.252C454.541 211.007 445.731 214.658 442.185 215.662C440.452 216.115 437.284 216.761 435.125 217.025C431.254 217.532 423.971 217.437 423.816 216.886C423.647 216.284 426.778 214.087 429.859 212.657C436.192 209.654 444.25 208.341 451.625 209.048C455.259 209.399 455.792 209.593 455.206 210.252ZM524.33 246.465L525.446 247.884L524.082 250.695L522.718 253.505L520.573 253.819C518.998 254.081 517.987 253.98 516.832 253.464C515.417 252.876 515.148 252.581 514.785 251.191C513.969 248.284 516.119 244.202 518.887 243.553C520.356 243.2 522.827 244.523 524.33 246.465ZM500.421 235.439C503.367 237.412 505.517 239.863 506.202 241.922L506.769 243.754L505.283 245.94C502.71 249.745 499.095 251.638 494.844 251.362C487.862 250.919 482.553 244.603 483.778 238.267C485.056 231.647 492.822 230.336 500.421 235.439ZM221.466 113.25C223.664 115.02 224.553 116.294 225.292 118.641C225.927 120.81 225.792 121.276 224.421 121.409C219.122 121.848 214.588 119.43 212.703 115.08C211.658 112.685 212.178 109.234 213.557 109.411C214.905 109.575 219.763 111.92 221.466 113.25ZM472.393 226.212C473.022 226.844 473.687 227.886 473.933 228.478L474.382 229.512L472.579 230.285C468.756 231.91 463.84 231.819 459.919 230.069C457.245 228.874 455.905 227.794 455.462 226.5C455.089 225.457 456.17 224.098 458.178 223.109C462.272 221.123 469.059 222.575 472.393 226.212ZM250.469 129.357C253.701 132.159 256.618 135.829 258.761 139.767C260.596 143.085 263.605 150.961 263.311 151.619C263.05 152.204 259.8 150.095 257.234 147.678C254.277 144.911 250.393 139.406 248.622 135.371C246.865 131.387 245.075 126.334 245.287 125.859C245.499 125.384 247.433 126.686 250.469 129.357ZM170.01 93.3873C170.923 94.9348 171.119 96.8637 170.532 98.1797C169.716 100.007 166.318 100.025 164.552 98.1842C162.576 96.1617 163.025 92.4604 165.391 91.3247C166.949 90.5296 168.772 91.3438 170.01 93.3873ZM205.037 118.453C206.477 120.455 206.619 122.667 205.477 125.226C202.917 130.878 197.01 132.844 190.749 130.049C185.005 127.484 182.114 122.203 183.688 117.207C184.543 114.476 185.991 113.193 188.392 113.038C194.491 112.604 202.782 115.342 205.037 118.453ZM232.02 130.677C233.58 132.733 234.398 134.983 234.211 136.872C234.061 138.515 233.409 138.75 230.443 138.127C227.889 137.644 224.796 136 222.392 133.874C220.513 132.203 217.06 127.855 217.272 127.38C217.501 126.868 219.829 125.979 221.247 125.823C223.451 125.623 224.505 125.874 227.647 127.409C230.167 128.622 230.876 129.157 232.02 130.677ZM506.259 252.163C506.415 253.285 505.949 254.655 504.652 256.662L503.385 258.683L501.622 257.896C499.921 257.137 499.876 257.073 500.031 255.827C500.298 253.842 500.991 252.616 502.179 251.832C503.867 250.744 506.076 250.941 506.259 252.163ZM176.1 106.935C177.226 108.578 177.562 111.008 176.893 112.507C176.338 113.75 174.167 115.104 172.536 115.165C170.966 115.253 168.139 113.991 167.187 112.776C165.386 110.525 165.695 107.463 167.921 105.826C170.757 103.717 174.188 104.196 176.1 106.935ZM448.324 231.467C448.668 231.84 448.902 232.296 448.82 232.478C448.739 232.661 447.314 233.647 445.642 234.698C440.613 237.801 432.943 245.512 428.456 251.97C427.754 252.972 426.848 254.102 426.456 254.409C426.017 254.74 423.894 255.414 421.684 255.874C408.915 258.677 396.409 265.545 390.248 273.141C389.693 273.813 388.535 274.612 387.65 274.962C386.764 275.312 378.387 276.525 369.041 277.701C351.537 279.925 350.332 280.176 333.98 284.8C325.449 287.172 318.952 287.603 313.69 285.999L311.54 285.346L312.557 283.476C315.346 278.452 320.313 273.041 325.954 268.896C331.235 264.985 333.934 263.428 349.847 254.97C353.666 252.948 359.53 249.691 362.916 247.74C366.318 245.752 372.17 242.358 375.916 240.173C383.781 235.618 397.205 228.897 402 227.136C414.321 222.642 424.202 222.144 434.753 225.452C438.718 226.696 447.608 230.622 448.324 231.467ZM467.499 240.687C471.912 244.192 473.298 249.414 471.583 256.277C469.184 265.816 462.908 272.527 455.696 273.252C451.411 273.707 446.2 271.906 442.014 268.546C438.913 266.022 429.001 257.036 428.874 256.585C428.717 256.121 436.185 244.943 438.227 242.655C440.603 239.945 442.312 238.648 444.909 237.484C450.958 234.792 462.061 236.374 467.499 240.687ZM513.845 264.319C513.687 265.081 513.244 266.155 512.878 266.649C511.284 268.831 507.196 269.416 506.923 267.497C506.8 266.302 507.921 263.953 509.1 262.945C510.074 262.152 511.216 261.961 512.775 262.306C514.058 262.616 514.161 262.794 513.845 264.319ZM251.806 152.489C265.12 160.713 270.59 170.258 279.827 201.17C281.553 206.939 284.772 217.364 286.99 224.316C291.936 239.853 295.769 253.884 296.546 259.492C297.483 266.048 297.117 271.278 295.352 277.11L294.817 278.799L292.226 277.336C289.544 275.832 286.265 273.052 283.998 270.374C282.134 268.182 280.877 266.262 275.891 258.161C266.791 243.356 260.559 234.699 254.304 228.136C247.076 220.568 246.479 219.293 246.765 211.792C247.159 201.928 245.71 197.335 237.733 183.69L233.936 177.172L234.573 173.949C236.09 166.384 236.027 157.544 234.467 148.955C233.983 146.284 233.984 145.627 234.463 145.534C236.054 145.236 247.569 149.895 251.806 152.489ZM491.063 260.24C492.997 263.339 492.163 268.228 489.147 271.31C484.773 275.801 476.403 273.16 476.478 267.275C476.539 262.567 480.854 257.391 485.045 256.983C487.125 256.816 489.87 258.26 491.063 260.24ZM181.971 123.586C181.781 125.562 181.141 127.731 180.506 128.5C180.061 129.09 179.738 129.078 178.188 128.386L176.395 127.585L176.685 125.303C177.162 121.132 177.918 120.417 180.609 121.575C181.976 122.186 182.065 122.313 181.971 123.586ZM227.256 144.859C232.712 149.049 235.01 154.678 234.167 161.711C233.757 165.079 231.466 177.56 231.233 177.675C230.999 177.79 222.627 177.602 217.192 177.368C214.934 177.28 211.793 176.886 210.237 176.454C201.764 174.206 196.403 166.945 196.796 158.309C196.945 155.525 197.031 155.169 198.84 151.198C200.39 147.725 201.001 146.683 202.362 145.186C206.365 140.792 211.216 139.231 217.473 140.403C220.364 140.948 224.831 142.943 227.256 144.859ZM499.979 267.948C500.475 268.958 500.498 271.029 500.025 272.09C499.536 273.186 497.923 273.124 496.648 271.897C495.523 270.825 494.084 268.253 494.328 267.705C494.41 267.522 495.099 267.04 495.846 266.672C497.418 265.927 499.264 266.445 499.979 267.948ZM168.191 125.062C169.468 126.772 168.953 130.049 167.2 131.283C165.633 132.425 163.577 130.499 163.691 127.875C163.773 125.895 164.421 124.606 165.542 124.055C166.663 123.503 167.196 123.697 168.191 125.062ZM190.853 139.696C193.841 143.617 191.781 151.334 187.143 153.56C185.258 154.516 183.826 154.622 181.874 154.013C175.271 151.986 175.352 142.333 182.063 138.402C185.232 136.529 188.831 137.04 190.853 139.696ZM175.733 138.294C176.27 139.542 176.086 140.117 174.825 141.308C173.723 142.307 172.352 142.44 170.68 141.694C168.492 140.717 168.677 138.914 171.097 137.495C173.299 136.155 174.951 136.454 175.733 138.294ZM489.059 287.185C488.941 288.184 487.248 291.813 486.944 291.677C486.124 291.311 485.225 289.813 485.264 288.91C485.346 287.5 486.16 285.759 486.744 285.757C487.791 285.698 489.138 286.519 489.059 287.185ZM478.458 282.846C479.464 284.347 479.086 285.275 476.752 286.994L474.699 288.489L472.911 287.515C469.836 285.748 468.871 283.256 470.591 281.526C472.248 279.854 476.993 280.657 478.458 282.846ZM438.942 268.49C446.164 272.723 451.625 277.31 452.873 280.147C456.078 287.584 449.946 301.156 441.574 305.133C436.251 307.667 432.464 306.108 414.679 294.265C400.476 284.766 397.469 282.196 395.186 277.757C394.175 275.858 394.142 274.134 395.04 272.123C396.427 269.016 401.16 265.518 407.624 262.793C414.246 259.962 417.131 259.54 421.359 260.683C424.382 261.506 435.095 266.246 438.942 268.49ZM235.305 187.823C237.781 190.112 239.453 192.656 241.221 196.778C244.552 204.666 245.314 209.083 243.894 212.264C241.659 217.272 236.126 217.827 218.93 214.708C214.844 213.98 208.677 212.936 205.218 212.356C200.013 211.523 198.151 211.042 194.422 209.596C190.299 207.974 189.815 207.67 188.5 206.206C186.708 204.179 185.909 201.805 185.917 198.521C185.944 193.316 188.214 185.78 190.823 182.385C193.558 178.871 198.283 176.86 203.363 177.156C206.233 177.341 214.015 178.931 219.952 180.573C224.744 181.923 233.202 185.919 235.305 187.823ZM168.958 158.943C169.324 160.247 168.297 161.893 166.712 162.588C165.313 163.191 164.415 162.834 164.397 161.73C164.416 159.809 165.928 157.81 167.375 157.754C168.559 157.713 168.634 157.791 168.958 158.943ZM183.522 165.183C184.296 166.143 184.308 166.28 183.62 167.332C183.221 167.899 182.184 168.751 181.297 169.188C179.973 169.868 179.449 169.897 177.956 169.406C174.999 168.436 173.786 166.01 174.912 163.487C175.222 162.793 175.497 162.258 175.558 162.285C175.588 162.299 176.28 162.3 177.079 162.307C179 162.331 182.434 163.865 183.522 165.183ZM467.324 296.683C468.576 298.206 468.697 300.058 467.664 301.964C466.115 304.78 463.348 305.999 459.812 305.429C456.75 304.939 453.84 302.149 454.383 300.199C455.118 297.327 458.51 294.545 461.468 294.287C463.316 294.148 466.222 295.314 467.324 296.683ZM475.501 306.209C474.54 307.709 470.957 309.529 469.863 309.04C468.313 308.348 470.555 305.447 474.234 303.495L476.525 302.282L476.381 303.664C476.314 304.468 475.965 305.495 475.501 306.209ZM181.447 182.977C182.827 184.865 183.089 187.218 182.127 189.375C180.854 192.226 178.452 192.952 175.109 191.459C171.615 189.898 169.865 186.224 171.203 183.226C173.112 178.949 178.342 178.829 181.447 182.977ZM164.782 178.912C166.292 181.735 166.496 183.974 165.451 186.314C164.929 187.483 164.868 187.456 163.299 185.747C162.508 184.824 162.204 182.321 162.585 180.079C163.247 176.473 163.434 176.381 164.782 178.912ZM392.961 284.129C394.395 285.163 397.804 287.65 400.486 289.725C405.023 293.197 406.129 293.823 415.186 298.437C427.413 304.685 429.618 306.196 432.385 310.369C435.696 315.442 435.158 323.181 431.059 329.506C428.306 333.713 422.609 338.228 418.412 339.466C415.546 340.335 413.751 340.191 410.803 338.875C408.021 337.677 406.108 336.165 400.289 330.585C395.938 326.45 391.373 322.878 386.655 319.894C379.304 315.296 376.132 314.318 357.379 310.768C337.862 307.051 336.518 306.714 327.765 302.806C321.049 299.807 320.048 299.272 317.504 297.216C315.953 295.953 313.869 293.927 312.823 292.758C311.347 291.003 311.083 290.534 311.552 290.218C312.442 289.694 316.4 289.401 321.977 289.48C331.366 289.595 333.389 289.227 347.486 284.999C366.928 279.169 374.495 277.812 381.396 279.009C384.35 279.495 389.73 281.897 392.961 284.129ZM451.712 311.326C454.066 314.789 453.058 318.109 449.626 318.286C445.918 318.428 443.264 314.656 444.199 310.602C444.506 309.424 444.763 309.012 445.622 308.475C446.607 307.819 446.776 307.851 448.747 308.906C450.035 309.613 451.148 310.548 451.712 311.326ZM463.094 320.53C462.572 321.699 462.145 322.166 461.04 322.681C459.202 323.614 457.898 322.944 458.415 321.378C458.881 320.007 459.84 319.164 461.401 318.853C463.473 318.375 463.877 318.775 463.094 320.53ZM249.697 226.78C253.238 229.545 257.69 234.514 263.441 242.124C267.112 246.963 268.999 250.086 273.567 258.877C280.271 271.866 283.928 276.656 290.307 280.819C291.667 281.69 291.651 281.726 290.824 282.19C289.328 283.013 283.937 283.412 280.352 282.951C278.422 282.703 274.893 281.872 272.394 281.02C265.216 278.647 259.081 275.163 240.295 262.785C235.609 259.728 233.638 258.673 227.212 255.759C220.07 252.571 219.385 252.309 215.344 251.644C211.152 250.912 205.765 250.568 195.18 250.357C186.777 250.156 183.551 248.891 180.453 244.483C177.591 240.443 176.562 233.276 178.033 227.531C178.957 223.91 181.464 219.111 183.516 217.046C185.756 214.802 189.091 213.047 191.9 212.635C196.205 211.971 200.134 212.804 210.492 216.464C218.991 219.47 221.314 219.981 230.238 220.81C233.029 221.091 236.599 221.502 238.191 221.774C241.832 222.435 246.97 224.642 249.697 226.78ZM181.698 204.134C180.415 207.989 180.095 208.46 178.689 208.753C176.416 209.272 174.214 208.815 172.65 207.503C171.882 206.853 171.078 205.88 170.862 205.302L170.429 204.231L171.593 203.173C174.143 200.892 177.864 200.23 180.92 201.55L182.334 202.138L181.698 204.134ZM163.238 199.355C164.12 200.319 164.227 202.12 163.477 203.802C163.069 204.716 162.866 204.844 162.288 204.586C161.923 204.423 161.399 203.883 161.151 203.377C160.744 202.494 160.731 199.419 161.125 198.455C161.37 197.907 162.207 198.237 163.238 199.355ZM448.093 334.13C449.656 336.1 449.057 339.646 446.807 341.667C445.343 342.986 443.399 343.258 441.545 342.43C436.166 340.028 438.637 332.451 444.783 332.565C446.304 332.586 447.139 333.003 448.093 334.13ZM166.419 221.951C166.852 222.451 167.358 223.685 167.592 224.711C167.935 226.311 167.894 226.73 167.171 227.942C165.032 231.59 159.914 231.541 158.242 227.857C156.757 224.652 158.986 219.903 162.003 219.76C163.171 219.755 165.6 220.927 166.419 221.951ZM342.598 320.038C355.724 325.987 366.172 330.915 365.999 331.057C365.434 331.507 355.336 329.716 347.76 327.824C345.898 327.343 341.987 325.816 337.064 323.618C330.424 320.609 328.893 319.794 326.164 317.743C322.333 314.892 320.266 312.829 318.204 309.936C316.751 307.884 316.723 307.784 317.766 308.468C318.385 308.877 329.548 314.08 342.598 320.038ZM394.566 343.813C404.611 350.052 409.529 358.386 408.019 366.831C407.494 369.884 406.552 371.831 405.212 372.548C402.344 374.073 397.981 373.397 391.021 370.289C385.217 367.697 369.917 359.024 367.192 356.799C363.715 353.975 362.506 350.805 362.394 344.442C362.297 339.269 361.832 334.677 361.312 333.963C361.032 333.531 360.963 333.193 361.181 333.115C362.433 332.841 375.851 335.851 380.787 337.529C384.048 338.634 392.16 342.344 394.566 343.813ZM273.855 290.484C272.697 293.08 260.707 292.505 251.21 289.448C246.179 287.816 237.308 283.767 233.695 281.408C228.525 278.048 223.06 273.634 223.321 273.05C223.386 272.903 226.675 274.109 230.63 275.7C254.984 285.565 263.013 288.317 269.926 289.08C272.945 289.42 274.133 289.863 273.855 290.484ZM318.689 313.747C330.615 326.306 330.994 326.519 342.455 329.094C348.476 330.467 350.276 331.008 353.023 332.366C356.043 333.846 356.45 334.159 357.814 336.084C360.187 339.423 361.417 344.751 361.523 351.944C361.548 353.358 361.285 358.765 360.996 363.985C360.323 375.127 360.32 377.011 360.982 382.305C361.614 387.015 361.726 389.213 361.416 389.908C361.236 390.31 360.353 390.003 356.362 388.002C347.029 383.352 339.444 375.932 329.854 362.224C325.868 356.455 319.284 345.974 316.674 341.126C309.765 328.352 307.114 316.164 309.888 309.949C310.394 308.816 310.991 307.723 311.21 307.558C311.901 306.99 313.676 308.484 318.689 313.747ZM278.781 294.963C278.889 295.538 278.455 296.265 276.626 298.648C272.171 304.463 267.747 307.924 260.215 311.488C252.917 314.937 244.97 317.307 230.752 320.254C210.785 324.403 199.343 324.643 188.764 321.234C186.478 320.477 184.498 319.768 184.348 319.613C184.198 319.459 185.095 318.675 186.374 317.931C189.186 316.206 194.954 310.714 199.692 305.245C207.456 296.261 211.412 291.889 214.12 289.416C223.964 280.264 229.801 279.845 240.714 287.567C250.313 294.396 251.673 294.697 267.017 293.963C273.758 293.641 277.2 293.687 278.128 294.058C278.418 294.144 278.699 294.576 278.781 294.963ZM216.608 272.902C220.194 275.073 222.46 276.611 224.691 278.309L225.43 278.858L223.627 279.631C222.398 280.179 220.703 281.526 217.914 284.183C212.554 289.33 210.549 290.802 208.042 291.437C202.333 292.877 190.416 290.099 177.301 284.287C169.46 280.786 167.48 279.507 166.339 277.244L165.695 275.992L167.113 272.898C168.271 270.303 168.752 269.553 170.344 268.028C175.927 262.541 185.583 261.241 197.34 264.299C201.615 265.418 211.765 269.95 216.608 272.902ZM308.602 331.12C312.704 341.282 318.612 352.951 325.39 364.22L328.337 369.131L327.623 374.161C325.577 388.461 325.021 399.831 325.745 412.824C326.484 426.438 326.165 429.277 322.982 435.835C319.653 442.722 318.046 443.627 313.557 441.272C309.643 439.262 307.335 434.636 305.589 425.482C304.538 419.752 303.915 414.125 302.887 400.426C302.394 393.936 301.338 383.074 300.546 376.276C297.161 347.933 296.986 337.464 299.558 323.619C300.687 317.415 301.339 315.383 302.343 314.603C303.158 314.003 303.188 314.016 304.774 319.854C305.689 323.112 307.402 328.173 308.602 331.12ZM280.453 305.18C280.441 306.84 275.477 315.102 271.055 320.844C264.82 328.933 259.432 333.98 242.606 347.424C237.097 351.847 228.538 358.854 223.603 363.052C206.537 377.44 196.39 385.229 191.831 387.359C187.646 389.304 184.564 389.594 181.464 388.21C180.188 387.64 178.9 386.933 178.6 386.624C177.866 385.902 177.932 382.161 178.724 379.489C179.552 376.571 181.822 372.63 184.52 369.363C185.661 368.031 189.907 363.745 193.987 359.912C205.584 348.956 212.198 341.65 218.862 332.438C221.891 328.266 222.222 327.931 223.855 327.214C224.833 326.818 230.708 324.925 236.919 323.095C258.762 316.539 268.616 312.346 277.659 305.642C278.866 304.734 280.005 304.059 280.157 304.127C280.309 304.195 280.436 304.646 280.453 305.18ZM423.618 371.078C425.488 373.666 425.622 379.163 423.876 383.074L422.979 385.085L422.104 384.431C419.979 382.824 418.01 379.315 417.078 375.523C416.578 373.458 416.291 371.489 416.454 371.123C416.862 370.209 418.751 369.08 420.107 368.983C421.431 368.873 422.46 369.508 423.618 371.078ZM295.734 319.938C295.71 321.462 295.74 328.008 295.831 334.581C296.187 359.993 294.792 371.12 289.519 384.812C288.81 386.644 287.836 389.234 287.373 390.517C286.863 391.824 286.375 392.834 286.254 392.78C286.132 392.725 285.983 391.344 285.996 389.683C285.992 388.059 285.846 382.426 285.644 377.163C284.762 351.867 286.612 336.208 291.932 324.291C293.564 320.635 295.439 317.088 295.682 317.197C295.743 317.224 295.772 318.465 295.734 319.938ZM281.068 319.396C279.447 323.846 278.747 325.331 276.478 329.272C271.519 337.931 266.051 344.301 251.462 358.612C241.827 368.032 238.384 371.581 238.025 372.385C237.894 372.677 237.675 372.842 237.523 372.775C237.128 372.598 239.257 366.359 241.248 361.899C244.46 354.784 248.862 348.025 254.914 341.082C258.051 337.484 260.088 335.369 270.725 324.686C274.198 321.151 278.117 317.026 279.433 315.466C280.796 313.882 282.124 312.459 282.437 312.248C283.53 311.596 283.037 314.006 281.068 319.396ZM158.744 264.865C159.401 265.597 158.923 266.83 157.064 269.2C155.188 271.607 152.731 272.702 148.044 273.24L144.128 273.683L144.788 271.961C146.799 266.721 151.86 262.405 155.428 262.902C156.562 263.058 157.743 263.76 158.744 264.865ZM368.884 361.501C371.122 363.508 372.364 364.238 379.953 367.977C395.401 375.664 398.168 378.04 401.2 386.189C402.611 389.888 403.284 394.178 403.108 398.001C402.953 401.615 401.382 405.868 399.403 408.097C397.583 410.134 395.231 411.32 392.675 411.494C390.857 411.646 389.787 411.432 386.879 410.352C383.59 409.147 383.045 408.816 380.007 406.232C366.742 394.96 361.309 382.144 362.839 365.816C363.294 360.714 364.383 358.439 365.949 359.094C366.162 359.189 367.471 360.256 368.884 361.501ZM414.984 388.135C415.401 389.812 415.095 392.13 414.182 394.178C413.154 396.481 412.343 396.908 410.55 396.107C409.365 395.578 409.201 395.373 409.336 394.337C409.518 392.622 411.783 388.284 412.943 387.399C414.12 386.478 414.622 386.658 414.984 388.135ZM202.609 297.077C199.798 302.311 196.963 305.561 192.071 309.252C188.842 311.668 182.362 315 178.363 316.283C165.188 320.484 151.372 318.612 146.793 312.051C142.318 305.581 146.199 296.398 155.813 290.782C162.071 287.132 166.4 286.171 172.602 287.055C174.594 287.33 180.799 288.698 186.434 290.118C192.039 291.525 197.648 292.758 198.875 292.867C201.744 293.053 202.263 293.197 203.245 293.854L204.061 294.394L202.609 297.077ZM422.879 394.861C423.062 397.31 420.537 401.005 419.079 400.354C418.015 399.879 418.139 398.049 419.492 395.672C421.024 392.893 421.781 392.178 422.342 393.043C422.579 393.411 422.804 394.213 422.879 394.861ZM149.517 282.841C149.462 283.781 149.078 285.539 148.616 286.736C147.922 288.618 147.651 288.979 146.685 289.512C145.204 290.298 143.685 289.619 143.419 288.01C143.04 285.43 144.607 282.49 147.178 281.139C148.955 280.179 149.589 280.638 149.517 282.841ZM409.761 401.06C410.429 402.585 409.966 405.01 408.815 406.118C407.791 407.107 406.043 407.511 405.491 406.869C405.147 406.497 405.317 405.871 406.378 403.495C408.271 399.254 408.866 398.819 409.761 401.06ZM138.965 280.76C139.394 282.574 138.024 286.215 136.623 286.905C135.502 287.456 134.975 287.002 135.044 285.542C135.171 283.626 137.579 279.046 138.309 279.371C138.491 279.453 138.798 280.072 138.965 280.76ZM418.668 407.317C418.715 407.864 418.552 408.229 418.113 408.56C417.438 409.091 415.796 409.015 415.257 408.424C414.75 407.847 415.491 406.512 416.727 405.705C417.696 405.085 417.85 405.066 418.215 405.799C418.466 406.218 418.663 406.92 418.668 407.317ZM335.431 377.735C352.767 398.015 361.141 415.345 360.085 428.815C359.961 430.645 359.607 431.846 358.53 434.259C357.32 437.05 356.984 437.558 355.38 438.946C352.014 441.915 347.389 443.05 342.401 442.139C335.379 440.888 331.04 436.89 329.081 430.01C327.437 424.058 326.774 411.092 327.353 395.26C327.841 381.756 328.84 374.047 330.246 373.184C330.589 372.987 330.977 372.853 331.129 372.921C331.281 372.989 333.223 375.171 335.431 377.735ZM143.693 295.235C143.54 296.964 141.899 300.396 141.012 300.833C140.638 301.017 140.264 300.631 139.571 299.488C138.613 297.877 138.554 296.623 139.371 295.935C140.298 295.166 143.324 293.448 143.567 293.557C143.689 293.611 143.746 294.382 143.693 295.235ZM218.457 329.67C217.38 332.083 213.421 337.768 210.585 341.018C207.941 344.002 195.208 356.686 188.007 363.511C183.548 367.702 179.535 370.732 176.954 371.86C169.835 374.907 159.096 370.55 154.975 362.879C152.995 359.233 153.089 355.592 155.288 351.4C160.754 340.952 177.785 333.255 204.5 329.094C211.09 328.047 217.53 327.502 218.458 327.873C219.035 328.131 219.045 328.354 218.457 329.67ZM403.132 411.91C403.03 412.873 401.249 414.577 400.011 414.901C398.696 415.234 398.16 414.556 398.389 412.818C398.538 411.832 398.696 411.639 400.002 411.083C401.618 410.401 403.252 410.824 403.132 411.91ZM366.014 396.345C373.831 401.94 379.095 407.622 382.165 413.728C384.138 417.634 384.453 421.501 383.08 424.659C381.367 428.497 376.822 432.474 373.581 432.956C369.061 433.612 366.445 430.164 361.367 416.717C357.049 405.407 353.77 398.463 349.358 391.363C348.103 389.356 347.134 387.608 347.199 387.462C347.412 386.987 349.254 387.677 355.921 390.786C361.055 393.166 363.51 394.525 366.014 396.345ZM134.075 292.694C134.417 293.724 133.841 295.176 133.042 295.17C132.304 295.191 130.845 294.54 130.368 293.976C129.86 293.399 130.462 292.133 131.475 291.577C132.442 291.044 133.704 291.564 134.075 292.694ZM411.479 417.216C411.676 417.917 410.546 420.613 409.549 421.703C407.934 423.524 405.365 422.991 405.499 420.815C405.598 419.368 406.47 418.311 408.635 417.217C410.613 416.215 411.198 416.213 411.479 417.216ZM297.787 370.616C297.909 373.038 298.481 378.861 299.035 383.58C299.589 388.3 300.497 395.983 301.081 400.715C303.349 419.967 302.926 432.755 299.711 439.956C296.333 447.523 290.121 446.416 287.701 437.794C284.506 426.415 286.856 398.616 292.741 377.92C294.364 372.244 296.787 365.917 297.243 366.12C297.395 366.188 297.649 368.231 297.787 370.616ZM244.165 353.731C239.436 363.019 236 368.675 230.241 376.757C218.599 393.041 206.873 403.633 199.047 404.917C197.271 405.22 196.598 405.095 194.775 404.281C192.343 403.195 191.913 402.608 192.093 400.409C192.476 396.284 198.409 387.972 206.302 380.58C208.571 378.436 216.697 371.499 224.348 365.138C231.998 358.777 239.948 352.155 241.99 350.437C244.019 348.668 246.043 347.073 246.45 346.816C247.183 346.398 247.213 346.412 247.13 347.252C247.056 347.745 245.75 350.669 244.165 353.731ZM197.65 327.701C197.386 327.802 194.526 328.411 191.204 329.076C179.215 331.439 177.571 332.02 165.301 338.115C152.703 344.372 151.339 344.815 148.118 343.376C147.145 342.942 145.967 342.153 145.55 341.616C144.373 340.17 143.44 337.035 143.458 334.544C143.477 332.624 143.666 331.875 144.939 329.023C146.13 326.355 146.643 325.532 147.729 324.57C154.148 318.843 166.099 317.954 182.318 322.039C188.243 323.544 198.505 327.337 197.65 327.701ZM141.984 307.8C142.982 310.218 142.04 312.165 140.186 311.337C138.575 310.618 137.94 306.082 139.447 306.053C140.494 305.994 141.551 306.729 141.984 307.8ZM131.381 305.915C132.184 308.115 131.953 310.511 130.823 311.409C130.604 311.574 129.667 311.551 128.767 311.28L127.103 310.844L127.472 309.036C128.205 305.681 129.374 303.879 130.468 304.367C130.68 304.462 131.062 305.159 131.381 305.915ZM394.496 426.029C393.338 428.625 392.598 429.303 391.443 428.787C390.592 428.407 390.564 428.307 391.184 426.918C392.245 424.542 393.592 423.565 395.181 423.924C395.303 423.978 395.002 424.896 394.496 426.029ZM403.577 430.917C403.767 431.879 403.866 432.8 403.785 432.983C403.719 433.129 403.631 433.572 403.592 433.905C403.46 434.854 401.72 435.568 400.686 435.107C399.531 434.591 399.355 433.109 400.187 431.245C401.525 428.247 402.973 428.105 403.577 430.917ZM137.133 321.198C137.685 321.839 137.544 324.932 136.916 326.011C136.191 327.309 135.032 326.967 134.567 325.313C134.204 323.923 135.005 321.475 136.032 320.969C136.686 320.647 136.625 320.62 137.133 321.198ZM127.777 319.212C128.524 320.072 128.263 321.227 126.891 323.157L125.599 324.991L123.958 324.259L122.317 323.526L123.233 321.962C125.225 318.643 126.538 317.826 127.777 319.212ZM385.33 439.868C384.622 441.7 382.892 443.207 381.462 443.227C379.125 443.235 380.368 440.371 383.504 438.57C385.454 437.468 386.057 437.913 385.33 439.868ZM391.868 444.41C392.304 447.761 387.688 455.082 386.195 453.363C385.612 452.708 385.68 450.678 386.3 449.289C386.823 448.119 390.072 443.125 390.574 442.736C391.093 442.31 391.687 443.101 391.868 444.41ZM134.193 338.562C134.888 341.415 134.512 343.483 133.231 343.656C131.519 343.9 130.932 341.621 131.952 338.438C132.537 336.638 132.649 336.469 133.196 336.714C133.5 336.849 133.954 337.71 134.193 338.562ZM369.989 445.82C369.728 446.405 369.46 447.25 369.356 447.729C369.233 448.332 369.011 448.584 368.52 448.54C367.599 448.48 365.241 447.558 365.159 447.171C364.959 446.556 369.427 444.385 370.187 444.725C370.339 444.792 370.234 445.272 369.989 445.82ZM125.644 336.893C126.384 338.012 126.003 340.824 124.7 343.661C123.185 346.974 122.454 347.876 121.599 347.669C120.377 347.386 120.393 344.982 121.677 341.698C122.665 339.158 124.608 335.948 125.033 336.138C125.125 336.179 125.377 336.511 125.644 336.893ZM377.37 455.823C377.853 457.354 377.279 458.15 374.962 459.176C371.106 460.874 366.882 458.988 368.732 456.395C369.768 454.972 371.304 453.816 372.82 453.441C374.663 452.905 376.816 454.042 377.37 455.823ZM140.781 354.831C141.521 356.521 141.258 357.192 139.716 357.381C138.774 357.53 138.485 357.445 138.283 356.916C137.908 355.96 137.99 353.98 138.463 352.92C138.855 352.042 138.932 352.033 139.529 352.738C139.917 353.174 140.477 354.125 140.781 354.831ZM357.833 451.09C358.086 451.992 358.035 452.188 357.33 452.706C355.714 453.958 354.436 454.045 351.923 453.142L349.501 452.28L350.187 451.315C351.128 450.025 352.218 449.46 354.036 449.307C356.085 449.126 357.467 449.786 357.833 451.09ZM130.962 356.497C131.76 357.73 132.443 360.447 132.267 361.902C132.037 363.641 131.136 364.028 129.221 363.173C126.273 361.857 124.19 358.033 125.464 356.322C126.91 354.469 129.644 354.55 130.962 356.497ZM341.455 451.362C342.349 452.462 342.442 453.643 341.756 455.179C341.071 456.714 339.116 457.419 337.085 456.907C333.955 456.08 333.1 453.505 335.06 450.829C335.568 450.18 336.222 449.858 337.346 449.79C339.241 449.627 340.368 450.043 341.455 451.362ZM360.497 460.39C360.804 461.009 360.758 461.602 360.35 462.516C359.256 464.966 356.21 465.666 352.898 464.187C351.682 463.644 351.518 463.439 351.882 463.032C352.12 462.744 352.456 462.236 352.619 461.871C353.076 460.847 355.881 459.381 357.622 459.238C359.486 459.062 359.942 459.265 360.497 460.39ZM148.234 367.366C149.037 368.426 149.09 370.51 148.332 371.312C147.713 372.044 144.48 370.469 143.413 368.94C142.613 367.793 142.426 366.088 142.932 364.955C143.275 364.187 147.209 365.988 148.234 367.366ZM328.473 451.133C328.862 452.139 328.306 452.812 326.377 453.704C324.261 454.689 321.373 454.627 317.956 453.627C315.883 452.964 315.791 452.923 316.134 452.156C316.901 450.438 319.853 448.643 322.068 448.58C324.622 448.492 327.969 449.812 328.473 451.133ZM159.328 378.194C161.19 379.903 160.609 382.756 158.152 383.851C156.954 384.412 156.493 384.382 155.095 383.758C150.354 381.641 151.032 376.857 156.056 376.952C157.761 376.969 158.112 377.081 159.328 378.194ZM310.44 448.254C311.407 449.519 312.007 451.848 311.515 452.461C311.356 452.653 310.349 452.949 309.284 453.131C304.822 453.9 302.128 451.689 303.547 448.509C304.184 447.083 305.125 446.363 306.464 446.303C308.111 446.206 309.31 446.785 310.44 448.254ZM139.585 373.106C140.145 374.627 140.065 376.521 139.359 377.696C138.941 378.386 138.71 378.414 137.415 377.968C135.755 377.358 134.618 376.149 133.857 374.099C133.196 372.313 133.527 371.409 135.031 370.897C136.722 370.293 138.938 371.37 139.585 373.106ZM342.948 463.778C342.694 464.673 339.483 466.395 338.132 466.319C337.504 466.257 336.431 466.129 335.758 466.004C334.535 465.721 334.521 465.671 334.978 464.647C335.451 463.587 336.726 462.446 337.966 462.036C339.798 461.363 343.271 462.563 342.948 463.778ZM171.328 388.463C172.353 389.841 173.169 392.749 172.778 393.626C172.664 393.882 172.543 394.398 172.487 394.767C172.41 395.347 172.104 395.298 170.19 394.443C168.838 393.796 167.433 392.862 166.64 392.025C165.159 390.443 163.326 387.038 163.62 386.38C163.914 385.722 165.752 385.359 167.159 385.637C168.795 385.973 170.154 386.93 171.328 388.463ZM184.533 397.91C184.564 398.494 184.362 399.763 184.046 400.718C183.275 403.179 182.123 403.717 179.952 402.704C178.098 401.876 176.243 399.908 176.164 398.777C176.105 397.523 177.716 396.445 180.061 396.089C182.699 395.732 184.387 396.442 184.533 397.91ZM325.538 461.791C325.826 462.533 325.807 462.657 324.974 463.381C323.354 464.805 321.966 464.975 319.93 464.066C317.559 463.007 317.109 461.974 318.494 460.75C319.012 460.324 320.007 459.891 320.731 459.82C322.397 459.6 325.027 460.73 325.538 461.791ZM149.558 386.283C150.601 387.538 150.968 389.412 150.488 390.732C150.124 391.709 149.954 391.765 149.084 391.508C148.124 391.211 146.301 389.169 145.828 387.862C145.453 386.905 145.13 384.525 145.294 384.16C145.522 383.648 148.709 385.246 149.558 386.283ZM300.621 454.655C301.258 455.597 301.51 457.726 300.996 457.979C300.887 458.062 299.51 457.228 297.969 456.189C295.114 454.257 293.951 452.86 294.391 451.873C294.75 451.069 299.566 453.263 300.621 454.655ZM310.46 459.969C311.578 461.301 311.441 461.854 309.647 462.85C308.68 463.383 307.893 463.514 306.946 463.267L305.588 462.879L305.88 460.511C306.022 459.215 306.298 458.023 306.471 457.881C307.02 457.468 309.4 458.75 310.46 459.969ZM164.943 397.624C165.256 397.984 165.151 398.463 164.422 399.935C163.531 401.685 163.468 401.745 162.477 401.434C159.305 400.456 157.187 395.565 159.692 395.017C160.388 394.845 164.152 396.701 164.943 397.624ZM188.887 409.631C188.262 410.623 186.472 410.877 183.888 410.38C182.495 410.153 181.011 409.885 180.627 409.845C180.09 409.824 179.912 409.569 179.956 409.063C180.231 406.731 182.897 406.474 187.46 408.336C188.966 408.965 189.19 409.197 188.887 409.631ZM175.139 406.299C174.47 407.797 173.07 409.057 171.946 409.125C170.652 409.249 169.219 406.987 169.718 405.544C170.086 404.393 171.062 404.083 173.051 404.445C175.467 404.911 175.678 405.092 175.139 406.299Z" fill="#008F39"/>
<path d="M203.943 315.138C206.243 314.542 208.543 313.946 210.843 313.349C213.126 312.558 215.595 311.653 218.249 310.633C214.666 307.814 210.116 306.257 204.599 305.962C204.292 309.127 204.073 312.186 203.943 315.138ZM315.294 214.371C315.258 222.805 313.798 231.759 310.913 241.231C308.223 250.685 304.048 259.977 298.388 269.107C292.728 278.237 285.654 286.905 277.166 295.109C268.679 303.313 258.806 310.268 247.547 315.974C249.592 319.126 251.556 322.481 253.441 326.039C255.325 329.597 257.058 333.659 258.64 338.225C260.944 344.295 262.973 350.585 264.727 357.096C266.676 363.59 268.316 369.915 269.647 376.071C271.172 382.211 272.46 387.881 273.51 393.082C274.771 398.46 275.752 402.883 276.452 406.35C277.749 412.117 279.959 416.039 283.085 418.114C286.422 420.367 289.948 421.427 293.661 421.293C297.587 421.337 301.346 420.611 304.939 419.116C308.726 417.603 311.629 416.071 313.648 414.519C313.471 414.731 312.548 416.479 310.879 419.765C309.227 423.245 306.903 426.883 303.906 430.678C300.927 434.668 297.215 438.135 292.77 441.078C288.538 444.199 283.557 445.524 277.829 445.052C273.886 444.813 270.263 443.762 266.961 441.899C263.87 440.212 260.976 437.43 258.278 433.552C255.793 429.851 253.593 424.948 251.679 418.843C249.764 412.739 248.215 405.229 247.032 396.314C245.572 384.287 244.067 372.852 242.516 362.009C241.143 350.954 238.193 340.922 233.668 331.912C232.946 330.407 232.233 329 231.528 327.69C230.807 326.185 230.005 324.884 229.123 323.786C221.319 326.439 212.482 328.498 202.612 329.962C201.906 337.476 201.121 345.193 200.255 353.113C199.39 361.033 198.41 368.767 197.315 376.316C196.415 383.846 195.277 390.908 193.901 397.501C192.737 404.271 191.487 410.068 190.151 414.893C188.637 419.929 186.453 424.045 183.6 427.239C180.958 430.611 176.329 432.591 169.715 433.178C165.824 433.523 162.342 432.95 159.268 431.458C156.194 429.966 153.158 427.785 150.158 424.914C150.884 424.261 152.062 423.176 153.692 421.659C155.145 420.353 156.866 417.651 158.855 413.553C160.667 409.667 162.527 404.11 164.434 396.881C166.536 389.636 168.422 379.959 170.092 367.849C170.633 362.899 171.397 357.145 172.384 350.587C173.547 343.817 174.757 336.455 176.011 328.5C167.85 324.911 163.741 319.491 163.686 312.241C163.678 307.732 165.384 303.757 168.804 300.316C172.224 296.875 176.508 294.338 181.658 292.704C183.289 282.363 184.911 271.925 186.525 261.39C188.333 250.837 190.008 240.982 191.548 231.826C193.071 222.475 194.486 214.114 195.792 206.743C197.081 199.178 198.12 193.203 198.907 188.819C195.612 191.465 192.344 194.402 189.101 197.631C186.213 200.436 183.067 203.657 179.664 207.292C176.439 210.716 173.425 214.317 170.623 218.095C168.963 217.066 167.586 215.914 166.493 214.638C165.399 213.363 164.517 212.264 163.847 211.343C162.965 210.245 162.269 209.032 161.759 207.705C160.156 205.102 159.216 202.245 158.94 199.132C158.646 195.825 160.687 192.31 165.063 188.588C167.436 186.613 171.005 183.747 175.77 179.991C180.729 176.217 186.864 172.437 194.175 168.651C201.487 164.865 209.999 161.364 219.714 158.148C229.623 154.916 240.706 152.756 252.963 151.668C265.219 150.58 275.357 152.131 283.376 156.321C291.395 160.511 297.758 165.927 302.465 172.568C307.173 179.209 310.455 186.369 312.313 194.047C314.366 201.708 315.359 208.483 315.294 214.371ZM234.287 302.445C240.803 298.533 247.152 293.852 253.335 288.401C259.713 282.933 265.323 276.552 270.166 269.26C275.009 261.967 278.898 253.876 281.835 244.988C284.754 235.905 286.217 225.874 286.222 214.893C286.137 205.096 284.739 197.083 282.03 190.853C279.497 184.411 276.015 179.426 271.584 175.897C267.348 172.352 262.632 170.025 257.435 168.918C252.221 167.616 247.086 167.19 242.027 167.639C237.358 168.053 232.652 169.157 227.909 170.951C223.361 172.727 218.945 174.884 214.66 177.421C215.261 177.564 215.985 177.99 216.832 178.699C217.273 179.248 217.731 179.991 218.207 180.93C218.86 181.656 219.326 182.497 219.607 183.452C216.808 202.721 214.607 218.798 213.006 231.686C211.405 244.573 210.083 255.083 209.04 263.215C207.729 272.743 206.838 280.371 206.366 286.099C206.24 286.895 206.115 287.69 205.989 288.486C206.058 289.264 206.039 290.148 205.931 291.138C210.297 291.731 214.91 292.89 219.769 294.616C224.611 296.147 229.45 298.756 234.287 302.445Z" fill="black"/>
</svg>
