<svg width="53" height="53" viewBox="0 0 53 53" fill="none" xmlns="http://www.w3.org/2000/svg">
<path d="M26.3746 51.748C12.36 51.748 1 40.388 1 26.3747C1 12.3613 12.36 0.999999 26.3746 0.999999C40.388 0.999999 51.748 12.3613 51.748 26.3747C51.748 40.388 40.388 51.748 26.3746 51.748Z" stroke="#171717" stroke-width="2" stroke-miterlimit="10"/>
<path fill-rule="evenodd" clip-rule="evenodd" d="M26.6267 37.416C24.292 37.416 22.1226 36.7253 20.3066 35.5293L15.892 36.936L17.3253 32.7014C15.9493 30.82 15.1373 28.5107 15.1373 26.016C15.1373 25.6453 15.156 25.2734 15.1947 24.9094C15.7573 19.1387 20.6707 14.616 26.6267 14.616C32.66 14.616 37.6173 19.2533 38.0773 25.1267C38.104 25.4213 38.116 25.7147 38.116 26.016C38.116 32.304 32.96 37.416 26.6267 37.416ZM40.2853 25.6707C40.1 18.3387 34.06 12.4533 26.6267 12.4533C19.2827 12.4533 13.2946 18.2053 12.9746 25.4213C12.968 25.62 12.9627 25.8173 12.9627 26.016C12.9627 28.5813 13.6787 30.9747 14.92 33.0213L12.456 40.2947L20.024 37.8893C21.9827 38.964 24.2333 39.5787 26.6267 39.5787C34.176 39.5787 40.292 33.508 40.292 26.016C40.292 25.9013 40.292 25.7854 40.2853 25.6707Z" fill="#171717"/>
<path fill-rule="evenodd" clip-rule="evenodd" d="M32.8893 28.7547C32.5506 28.588 30.9066 27.7813 30.6 27.6733C30.292 27.5573 30.068 27.5067 29.8453 27.8387C29.6213 28.172 28.9746 28.92 28.7826 29.1373C28.584 29.3613 28.392 29.388 28.0533 29.2213C27.7213 29.0547 26.64 28.7093 25.36 27.5707C24.3693 26.6947 23.6906 25.6067 23.4986 25.2733C23.3066 24.9413 23.4786 24.7613 23.6453 24.596C23.7986 24.4427 23.9786 24.2053 24.1506 24.0133C24.196 23.956 24.2333 23.9053 24.2719 23.8533C24.3493 23.732 24.4066 23.6173 24.484 23.4573C24.5986 23.2333 24.5413 23.0413 24.4586 22.8747C24.3746 22.708 23.7026 21.0707 23.4213 20.4053C23.1466 19.74 22.8653 19.8547 22.6666 19.8547C22.4746 19.8547 22.2506 19.824 22.0266 19.824C21.8026 19.824 21.4386 19.9067 21.132 20.2387C20.824 20.572 19.9613 21.3773 19.9613 23.016C19.9613 23.3987 20.0306 23.7827 20.1333 24.148C20.472 25.3187 21.2026 26.284 21.3293 26.4507C21.496 26.6693 23.6453 30.136 27.0493 31.4733C30.4586 32.7973 30.4586 32.356 31.0733 32.2987C31.6866 32.2467 33.056 31.4987 33.3306 30.7187C33.6133 29.944 33.6133 29.2787 33.5293 29.1373C33.4466 29.004 33.2226 28.92 32.8893 28.7547Z" fill="#171717"/>
</svg>
